<svg width="129" height="126" viewBox="0 0 129 126" fill="none" xmlns="http://www.w3.org/2000/svg">
<g clip-path="url(#clip0_365_76)">
<path d="M34.5661 88.155L34.431 87.9863L32.567 89.4717L32.7021 89.6404C32.828 89.7976 32.9551 89.9536 33.0833 90.109L33.2207 90.276L35.0633 88.7647L34.9259 88.5978C34.8046 88.4509 34.6857 88.3036 34.5661 88.155Z" fill="white"/>
<path d="M32.5381 85.3957C32.4325 85.2386 32.3274 85.0808 32.224 84.9213L32.1062 84.74L30.1053 86.0359L30.2231 86.2167C30.3329 86.3854 30.4443 86.553 30.5563 86.7205L30.677 86.9001L32.6588 85.5748L32.5381 85.3957Z" fill="white"/>
<path d="M33.5695 34.8694L33.4297 35.034C33.2992 35.1878 33.1699 35.3426 33.0417 35.4987L32.9042 35.6656L34.7492 37.174L34.8866 37.0071C35.0079 36.8597 35.1297 36.714 35.2527 36.5684L35.3925 36.4031L33.5695 34.8694Z" fill="white"/>
<path d="M46.5788 24.5459C46.3998 24.6386 46.2219 24.7318 46.0447 24.8274L45.8547 24.9299L46.9836 27.025L47.1747 26.9225C47.3422 26.8327 47.5102 26.7446 47.6788 26.6571L47.8711 26.5575L46.7717 24.4463L46.5788 24.5459Z" fill="white"/>
<path d="M27.4109 74.6233C27.3555 74.442 27.3012 74.2589 27.2481 74.0764L27.188 73.8691L24.8956 74.5289L24.9556 74.7362C25.0116 74.9296 25.0688 75.1225 25.1277 75.3148L25.1906 75.5215L27.4745 74.83L27.4109 74.6233Z" fill="white"/>
<path d="M30.476 81.9775C30.386 81.8106 30.2976 81.6425 30.2098 81.4743L30.1099 81.2832L27.9924 82.3788L28.0918 82.5705C28.1847 82.7484 28.2783 82.9257 28.3735 83.1025L28.4758 83.2931L30.5783 82.1681L30.476 81.9775Z" fill="white"/>
<path d="M28.7616 78.3763C28.6889 78.2013 28.6173 78.0257 28.5462 77.8495L28.466 77.6492L26.2503 78.5323L26.3311 78.7333C26.4056 78.9192 26.4819 79.1046 26.5587 79.2894L26.6418 79.4886L28.8448 78.5761L28.7616 78.3763Z" fill="white"/>
<path d="M43.3266 96.2913L43.1482 96.1687L41.7935 98.1273L41.9719 98.2494C42.1388 98.3639 42.3057 98.4774 42.4738 98.5891L42.6539 98.7088L43.9803 96.7318L43.8002 96.612C43.6414 96.5061 43.4837 96.3996 43.3266 96.2913Z" fill="white"/>
<path d="M42.9213 26.6726C42.7527 26.782 42.5846 26.8931 42.4172 27.0048L42.237 27.1251L43.5663 29.1005L43.7459 28.9807C43.9035 28.8754 44.0623 28.7706 44.2223 28.6669L44.4042 28.5489L43.1026 26.5552L42.9213 26.6732V26.6726Z" fill="white"/>
<path d="M26.4379 70.7537C26.401 70.5671 26.3652 70.3806 26.3305 70.1929L26.2913 69.9805L23.9445 70.4123L23.9838 70.6247C24.0207 70.8228 24.0583 71.0202 24.0975 71.2171L24.1397 71.429L26.4795 70.965L26.4374 70.7531L26.4379 70.7537Z" fill="white"/>
<path d="M36.3152 31.9428C36.1709 32.0827 36.0276 32.2244 35.8856 32.366L35.732 32.5186L37.4205 34.1997L37.5735 34.0471C37.7086 33.9124 37.8449 33.7788 37.9812 33.6458L38.1365 33.495L36.4706 31.792L36.3152 31.9428Z" fill="white"/>
<path d="M46.7313 98.3931L46.5419 98.2883L45.387 100.37L45.5769 100.475C45.7536 100.572 45.9315 100.668 46.1094 100.763L46.3005 100.865L47.4265 98.7679L47.236 98.666C47.0673 98.5762 46.8993 98.4852 46.7318 98.3925L46.7313 98.3931Z" fill="white"/>
<path d="M39.49 29.146C39.3324 29.2721 39.1759 29.3988 39.02 29.5266L38.8525 29.6636L40.3689 31.4996L40.5364 31.3626C40.6831 31.2423 40.8309 31.1225 40.9799 31.0039L41.1485 30.8692L39.6587 29.0107L39.4895 29.1455L39.49 29.146Z" fill="white"/>
<path d="M40.1443 93.8681L39.9792 93.7288L38.4397 95.5463L38.6054 95.6857C38.7596 95.8158 38.9149 95.9447 39.0714 96.072L39.2389 96.209L40.7524 94.3695L40.5849 94.2325C40.4377 94.1122 40.2904 93.9901 40.1449 93.8675L40.1443 93.8681Z" fill="white"/>
<path d="M37.2149 91.1466L37.0642 90.9917L35.3544 92.6515L35.5057 92.8064C35.6466 92.9503 35.788 93.0937 35.9307 93.2359L36.0843 93.3885L37.7698 91.705L37.6168 91.5525C37.4817 91.4183 37.3483 91.283 37.2149 91.1466Z" fill="white"/>
<path d="M104.121 47.1432C104.194 47.3182 104.265 47.4932 104.336 47.6694L104.417 47.8692L106.631 46.9854L106.551 46.7851C106.477 46.5991 106.4 46.4137 106.323 46.2283L106.24 46.0286L104.037 46.944L104.121 47.1432Z" fill="white"/>
<path d="M102.402 43.5433C102.492 43.7103 102.581 43.8778 102.668 44.0459L102.768 44.2371L104.886 43.1409L104.786 42.9492C104.693 42.7707 104.599 42.5934 104.503 42.4166L104.401 42.2261L102.299 43.3533L102.401 43.5433H102.402Z" fill="white"/>
<path d="M100.337 40.1275C100.443 40.2847 100.548 40.443 100.651 40.6019L100.77 40.7827L102.768 39.4839L102.65 39.3031C102.54 39.135 102.429 38.9674 102.317 38.7999L102.196 38.6208L100.216 39.9479L100.336 40.1269L100.337 40.1275Z" fill="white"/>
<path d="M98.3056 37.3703L98.4408 37.5384L100.303 36.0513L100.167 35.8832C100.041 35.7266 99.9144 35.57 99.7857 35.4152L99.6482 35.2488L97.8073 36.7618L97.9447 36.9287C98.066 37.075 98.1861 37.2218 98.3056 37.3703Z" fill="white"/>
<path d="M105.475 50.8946C105.531 51.0759 105.584 51.2584 105.638 51.4415L105.698 51.6488L107.989 50.9867L107.929 50.7794C107.873 50.586 107.816 50.3931 107.757 50.2008L107.694 49.9941L105.412 50.6885L105.475 50.8952L105.475 50.8946Z" fill="white"/>
<path d="M107.041 58.7108C107.06 58.8996 107.078 59.0885 107.094 59.2779L107.112 59.4926L109.49 59.2917L109.472 59.0764C109.454 58.8755 109.436 58.6751 109.416 58.4748L109.394 58.26L107.019 58.4961L107.041 58.7108Z" fill="white"/>
<path d="M106.452 54.7625C106.489 54.949 106.524 55.1356 106.56 55.3227L106.599 55.5346L108.945 55.1033L108.905 54.8909C108.869 54.6923 108.83 54.4948 108.791 54.2973L108.749 54.0854L106.41 54.5506L106.452 54.7619V54.7625Z" fill="white"/>
<path d="M32.5023 40.2148C32.6086 40.0565 32.7154 39.8988 32.8234 39.7422L32.9464 39.5643L30.9813 38.2153L30.8583 38.3932C30.744 38.559 30.6302 38.726 30.5182 38.8935L30.3981 39.0732L32.3822 40.3945L32.5023 40.2148Z" fill="white"/>
<path d="M26.4218 54.8851C26.4582 54.698 26.4963 54.5121 26.5356 54.3261L26.5806 54.1154L24.2465 53.6226L24.2021 53.8338C24.1605 54.0307 24.1201 54.2282 24.0808 54.4257L24.0392 54.6376L26.3808 55.097L26.4218 54.8851Z" fill="white"/>
<path d="M25.8438 58.8323C25.8623 58.6423 25.8819 58.4535 25.9027 58.2646L25.9264 58.0499L23.5548 57.7891L23.5311 58.0044C23.5091 58.2042 23.4884 58.4039 23.4687 58.6043L23.4479 58.819L25.823 59.047L25.8438 58.8317V58.8323Z" fill="white"/>
<path d="M27.3867 51.0131C27.4421 50.8301 27.4987 50.6481 27.5564 50.4662L27.6223 50.2607L25.3483 49.541L25.2824 49.7465C25.2212 49.9388 25.1612 50.1323 25.1023 50.3257L25.0399 50.5324L27.3237 51.2198L27.3861 51.0137L27.3867 51.0131Z" fill="white"/>
<path d="M25.8518 66.8065C25.8334 66.6177 25.816 66.4277 25.7999 66.2383L25.7814 66.0229L23.4046 66.2227L23.4225 66.438C23.4393 66.639 23.4577 66.8393 23.4774 67.0391L23.4987 67.2539L25.8732 67.0213L25.8518 66.8065Z" fill="white"/>
<path d="M95.6534 34.3806L95.8047 34.5355L97.5134 32.8751L97.3621 32.7202C97.2212 32.5763 97.0791 32.433 96.9359 32.2908L96.7823 32.1382L95.0979 33.8233L95.2515 33.9759C95.386 34.1095 95.52 34.2442 95.6534 34.3806Z" fill="white"/>
<path d="M28.7327 47.2503C28.8055 47.0735 28.88 46.8985 28.9556 46.7235L29.0417 46.5249L26.8491 45.5847L26.7636 45.7833C26.6839 45.9687 26.6054 46.1553 26.5275 46.3418L26.4449 46.541L28.6502 47.4501L28.7327 47.2503Z" fill="white"/>
<path d="M30.4437 43.6394C30.5338 43.4712 30.6251 43.3037 30.7175 43.1367L30.822 42.9479L28.7333 41.7976L28.6288 41.987C28.5312 42.1638 28.4342 42.3405 28.3389 42.519L28.2373 42.7096L30.3421 43.8299L30.4437 43.6394Z" fill="white"/>
<path d="M54.435 21.4158C54.241 21.4717 54.0476 21.5292 53.8547 21.5874L53.6474 21.6502L54.3421 23.926L54.5494 23.8632C54.7313 23.808 54.9143 23.7539 55.098 23.7009L55.3058 23.641L54.6435 21.356L54.435 21.4158Z" fill="white"/>
<path d="M93.7929 29.4576L93.6248 29.3206L92.1136 31.1612L92.2817 31.2982C92.4295 31.4185 92.5756 31.54 92.7217 31.6626L92.8874 31.8019L94.4252 29.9832L94.2594 29.8439C94.1047 29.7138 93.9494 29.5854 93.7929 29.4576Z" fill="white"/>
<path d="M97.9846 88.5812C97.8633 88.7286 97.7409 88.8748 97.6179 89.0205L97.4781 89.1851L99.3006 90.7206L99.4403 90.5559C99.5708 90.4022 99.7002 90.2473 99.8278 90.0919L99.9652 89.9249L98.122 88.4148L97.9846 88.5812Z" fill="white"/>
<path d="M95.2948 91.5387C95.1591 91.6734 95.0228 91.807 94.886 91.94L94.7307 92.0908L96.3954 93.7944L96.5508 93.6441C96.6951 93.5037 96.8389 93.3632 96.9815 93.221L97.1346 93.0684L95.4478 91.3867L95.2948 91.5387Z" fill="white"/>
<path d="M92.329 94.2204C92.1823 94.3408 92.0339 94.4605 91.885 94.5791L91.7158 94.7138L93.2044 96.5728L93.3736 96.4387C93.5313 96.3132 93.6883 96.1865 93.8442 96.0582L94.0117 95.9211L92.4959 94.084L92.3284 94.221L92.329 94.2204Z" fill="white"/>
<path d="M86.7509 24.7728L86.5598 24.6709L85.436 26.7694L85.6272 26.8713C85.7958 26.9617 85.9644 27.0521 86.1324 27.1448L86.3224 27.2496L87.4739 25.1654L87.2839 25.0612C87.1072 24.9645 86.9299 24.8684 86.752 24.7734L86.7509 24.7728Z" fill="white"/>
<path d="M89.1167 96.5998C88.9591 96.7052 88.8003 96.8094 88.6403 96.913L88.459 97.0305L89.7577 99.0259L89.939 98.9085C90.1082 98.7991 90.2768 98.6886 90.4443 98.5769L90.6244 98.4565L89.2969 96.4795L89.1167 96.5998Z" fill="white"/>
<path d="M90.3871 26.9432L90.2069 26.8235L88.8828 28.8023L89.063 28.922C89.2218 29.0279 89.38 29.1345 89.5371 29.2427L89.7155 29.3647L91.0679 27.4044L90.8894 27.2823C90.7226 27.1683 90.5551 27.0549 90.3871 26.9432Z" fill="white"/>
<path d="M85.6878 98.6529C85.5197 98.7427 85.3511 98.8314 85.1819 98.9189L84.9896 99.0185L86.0885 101.13L86.2808 101.031C86.4592 100.938 86.6371 100.845 86.8132 100.751L87.0043 100.649L85.8777 98.551L85.6866 98.6529H85.6878Z" fill="white"/>
<path d="M106.468 70.7128C106.431 70.9 106.392 71.0865 106.352 71.2724L106.308 71.4832L108.642 71.976L108.687 71.7647C108.729 71.5684 108.77 71.3715 108.808 71.1746L108.85 70.9627L106.509 70.501L106.468 70.7128Z" fill="white"/>
<path d="M107.049 66.7651C107.031 66.9551 107.011 67.1445 106.99 67.3334L106.966 67.5481L109.337 67.8095L109.361 67.5947C109.383 67.3955 109.404 67.1958 109.423 66.9954L109.445 66.7807L107.07 66.5498L107.049 66.7651Z" fill="white"/>
<path d="M105.498 74.5829C105.442 74.7666 105.386 74.9491 105.328 75.1316L105.263 75.3371L107.537 76.0562L107.602 75.8507C107.663 75.6584 107.723 75.4661 107.782 75.2726L107.845 75.0665L105.561 74.3762L105.498 74.5829Z" fill="white"/>
<path d="M104.149 78.3441C104.076 78.5202 104.002 78.6958 103.926 78.8714L103.841 79.0695L106.031 80.0114L106.116 79.8133C106.197 79.6279 106.276 79.442 106.353 79.2554L106.436 79.0562L104.232 78.1443L104.149 78.3441Z" fill="white"/>
<path d="M102.434 81.9534C102.344 82.1215 102.253 82.2885 102.16 82.4554L102.055 82.6443L104.142 83.7975L104.247 83.6086C104.345 83.4319 104.442 83.2546 104.537 83.0772L104.639 82.8867L102.536 81.7634L102.434 81.9534H102.434Z" fill="white"/>
<path d="M100.372 85.3767C100.266 85.5344 100.159 85.6916 100.051 85.8476L99.9277 86.0255L101.89 87.3784L102.013 87.2006C102.128 87.0342 102.242 86.8678 102.355 86.7002L102.475 86.5206L100.492 85.197L100.372 85.3767H100.372Z" fill="white"/>
<path d="M61.9026 103.202L61.6872 103.177L61.4227 105.541L61.6381 105.566C61.8385 105.588 62.04 105.609 62.2416 105.628L62.4569 105.649L62.6856 103.281L62.4702 103.26C62.2802 103.242 62.0908 103.222 61.902 103.201L61.9026 103.202Z" fill="white"/>
<path d="M50.3265 100.152L50.1273 100.066L49.1837 102.252L49.3829 102.337C49.5689 102.417 49.7554 102.495 49.9425 102.573L50.1429 102.655L51.0552 100.457L50.8554 100.374C50.6782 100.301 50.502 100.228 50.3265 100.152Z" fill="white"/>
<path d="M62.7561 19.8826C62.5552 19.8993 62.3542 19.9177 62.1533 19.9379L61.9379 19.9592L62.1723 22.3266L62.3883 22.3052C62.5777 22.2868 62.7677 22.269 62.9576 22.2529L63.1736 22.235L62.9715 19.8647L62.7555 19.8832L62.7561 19.8826Z" fill="white"/>
<path d="M58.558 20.4446C58.3594 20.4809 58.1613 20.5188 57.9632 20.5586L57.7507 20.6006L58.2173 22.9334L58.4298 22.8914C58.6169 22.8546 58.804 22.8189 58.9923 22.7838L59.2053 22.7446L58.7711 20.406L58.558 20.4446Z" fill="white"/>
<path d="M50.4264 22.7884C50.2399 22.8626 50.0539 22.9386 49.8686 23.0152L49.6688 23.0981L50.5852 25.2951L50.7855 25.2116C50.9611 25.1385 51.1366 25.0677 51.3133 24.9969L51.5143 24.9162L50.6279 22.7078L50.4264 22.7884Z" fill="white"/>
<path d="M57.9517 102.568L57.7398 102.523L57.2432 104.85L57.4551 104.895C57.6526 104.937 57.8512 104.978 58.0493 105.016L58.2618 105.058L58.7226 102.724L58.5101 102.682C58.323 102.645 58.1376 102.607 57.9517 102.568Z" fill="white"/>
<path d="M70.4691 103.256C70.2791 103.275 70.0891 103.292 69.8991 103.308L69.6832 103.325L69.8818 105.696L70.0978 105.678C70.2993 105.662 70.5003 105.643 70.7006 105.624L70.916 105.603L70.6845 103.236L70.4691 103.256Z" fill="white"/>
<path d="M54.0793 101.548L53.8732 101.483L53.1502 103.75L53.3564 103.816C53.5498 103.877 53.7438 103.936 53.9378 103.995L54.1452 104.057L54.8346 101.78L54.6279 101.718C54.4443 101.663 54.2618 101.606 54.0793 101.548Z" fill="white"/>
<path d="M82.0741 100.362C81.8985 100.434 81.723 100.506 81.5463 100.576L81.3453 100.656L82.2288 102.865L82.4298 102.785C82.6169 102.711 82.8028 102.636 82.9888 102.559L83.1886 102.476L82.2733 100.279L82.0735 100.362L82.0741 100.362Z" fill="white"/>
<path d="M78.3085 101.706C78.1266 101.761 77.9436 101.815 77.7611 101.868L77.5532 101.928L78.2127 104.213L78.4206 104.153C78.6152 104.098 78.8092 104.041 79.002 103.982L79.2094 103.92L78.5153 101.643L78.3085 101.706Z" fill="white"/>
<path d="M78.9183 21.5494L78.711 21.4878L78.0227 23.7654L78.23 23.8275C78.4136 23.8828 78.5967 23.9387 78.7786 23.9962L78.9847 24.0613L79.706 21.7941L79.4998 21.729C79.3064 21.668 79.1129 21.6081 78.9183 21.5494Z" fill="white"/>
<path d="M82.9143 22.9686L82.7139 22.8862L81.8038 25.0849L82.0042 25.1673C82.1809 25.2398 82.357 25.3141 82.5326 25.3895L82.7312 25.4747L83.6736 23.2887L83.4744 23.2035C83.2885 23.124 83.1014 23.0457 82.9143 22.9686Z" fill="white"/>
<path d="M74.4275 102.674C74.241 102.711 74.0533 102.747 73.8657 102.781L73.6526 102.819L74.0839 105.16L74.297 105.121C74.4957 105.084 74.6943 105.046 74.8918 105.007L75.1043 104.965L74.64 102.632L74.4275 102.674Z" fill="white"/>
<path d="M70.6134 19.9245L70.3981 19.9038L70.1705 22.2723L70.3865 22.2931C70.5765 22.3109 70.7659 22.3305 70.9547 22.3512L71.1701 22.3748L71.4317 20.0109L71.2169 19.9867C71.0165 19.9643 70.8155 19.9441 70.614 19.9251L70.6134 19.9245Z" fill="white"/>
<path d="M74.8057 20.5332L74.5932 20.4917L74.1335 22.8257L74.346 22.8671C74.5337 22.9034 74.7202 22.9414 74.9068 22.9806L75.1187 23.0255L75.6118 20.6978L75.3999 20.6535C75.2024 20.612 75.0043 20.5717 74.8063 20.5332H74.8057Z" fill="white"/>
<path d="M93.5463 35.6248L74.4235 54.6905L74.4212 54.6922V54.6905L73.5775 49.745L93.5463 35.6248Z" fill="white"/>
<path d="M58.3473 54.8385L53.3847 55.6779L39.1655 35.7146L58.3473 54.8385Z" fill="white"/>
<path d="M93.7334 89.8449L74.5153 70.6859L74.4622 70.6329L79.4502 69.7917L79.5125 69.8798L93.7334 89.8449Z" fill="white"/>
<path d="M93.9482 35.2234L93.5457 35.6247L74.4229 54.6904L74.2883 54.8246L74.2531 54.8712L74.2745 54.9881L79.4987 55.8741L79.561 55.7843L94.0966 35.3477L93.9482 35.2234ZM79.4092 55.6599L74.5505 54.8384L93.2691 36.1756L79.4092 55.6599Z" fill="white"/>
<path d="M59.3197 75.8122L39.3509 89.9325L58.476 70.865L59.3197 75.8122Z" fill="white"/>
<path d="M66.4495 117.005L59.4075 75.75L59.3197 75.8121L66.3519 117.02L66.5471 117.005V116.433L66.4495 117.005ZM66.4495 63.3626V70.7711L66.4553 70.7671L66.4495 63.3626Z" fill="white"/>
<path d="M74.4241 54.6904L74.4211 54.6927V54.6904H74.4241Z" fill="white"/>
<path d="M74.5153 70.6859L74.4627 70.6335L79.4507 69.7923L79.5131 69.8798L120.951 62.8744L120.936 62.6815H120.36L79.5616 55.7849L79.4993 55.8747L74.2751 54.9887L74.2537 54.8718L74.2889 54.8252L74.4217 54.6928V54.691L73.5781 49.7455L66.5459 8.53735L66.3524 8.5529V9.12517L59.4254 49.7041L38.8866 35.1635L38.7619 35.3115L58.3478 54.839L53.3858 55.6784L11.9492 62.6838L11.9647 62.8767H66.3513L58.6239 70.5678L53.3997 69.6841L53.3373 69.7739L38.8017 90.2105L38.9501 90.3348L58.4772 70.8661L59.3208 75.8139L59.4086 75.7517L66.4506 117.006L66.5482 116.434L73.473 75.857L94.0117 90.3958L94.1365 90.2479L93.734 89.8466L74.5153 70.6876V70.6859ZM39.7205 35.9926L59.3001 49.8555L58.476 54.6899L39.7205 35.9926ZM13.1237 62.6815L58.5055 55.01L66.2116 62.6815M39.6286 89.3814L53.4886 69.8971L58.3496 70.7169L39.6286 89.3814ZM58.6441 70.6974L66.3501 63.016L66.3519 115.852L58.6435 70.6968L58.6441 70.6974ZM66.547 9.7055L74.2531 54.858L66.547 62.5434V9.7055ZM67.1037 63.2924L66.6856 62.8755L74.5107 62.8836L74.5164 62.8755H119.773L74.3911 70.5471L67.1037 63.2924ZM73.5971 75.7016L74.4212 70.8672L93.1767 89.5651L73.5971 75.7022V75.7016Z" fill="white"/>
<path d="M66.3501 62.8762L58.6221 70.5668L53.3985 69.683L53.3361 69.7728L12.5399 62.8762H66.3501Z" fill="white"/>
<path d="M62.7653 0.274621V0C63.1597 0.0339678 63.4704 0.0512396 63.6973 0.0512396C63.8804 0.0512396 64.2084 0.0339678 64.6807 0L66.0077 1.65406C66.129 1.8003 67.0667 2.93217 68.8205 5.05027C68.8233 4.6156 68.8251 4.3001 68.8251 4.10435C68.8251 3.64147 68.8112 2.79515 68.7829 1.5654C68.7708 0.990825 68.7558 0.678781 68.7385 0.629269C68.7211 0.579756 68.6853 0.53485 68.6311 0.493973C68.5768 0.453672 68.3591 0.397827 67.9791 0.326437C67.9295 0.317225 67.8561 0.299953 67.7597 0.275197V0.000575726C68.314 0.0345436 68.7552 0.0518154 69.082 0.0518154C69.3996 0.0518154 69.8391 0.0345436 70.3998 0.000575726V0.275197C70.3155 0.297075 70.2531 0.310892 70.2127 0.317225C69.7952 0.40416 69.5631 0.461732 69.5163 0.489367C69.4822 0.507791 69.4539 0.536001 69.4326 0.573423C69.4014 0.622936 69.3794 0.716203 69.3667 0.852651C69.3638 0.91195 69.3563 1.33453 69.3459 2.12213C69.335 2.90914 69.3298 3.67083 69.3298 4.40718C69.3298 5.27653 69.3454 6.01116 69.3765 6.61049L69.0728 6.75039L67.1245 4.33695L64.5687 1.2712L64.5924 4.0249C64.608 5.2299 64.6247 5.87298 64.6438 5.95416C64.6559 6.01001 64.6842 6.05837 64.7281 6.09867C64.7968 6.16085 65.0289 6.2259 65.4239 6.29441C65.4707 6.30075 65.5405 6.31457 65.6341 6.33644V6.61106C65.1577 6.5771 64.7558 6.55982 64.4284 6.55982C64.1541 6.55982 63.676 6.5771 62.994 6.61106V6.33644C63.1031 6.31169 63.1857 6.29326 63.2417 6.2806C63.6153 6.21554 63.8319 6.15509 63.8913 6.09867C63.9254 6.07046 63.9508 6.02267 63.9658 5.95416C63.997 5.81138 64.019 5.27077 64.0317 4.33292C64.0473 3.00356 64.0548 2.2177 64.0548 1.97589C64.0548 1.19636 64.0438 0.763413 64.0219 0.675903C64.0097 0.613724 63.9693 0.561909 63.9006 0.519881C63.8319 0.477853 63.5374 0.413371 63.0177 0.326437C62.9617 0.317225 62.8773 0.299378 62.7653 0.274621Z" fill="white"/>
<path d="M3.42488 66.0831H3.08823C2.57719 64.6046 2.02284 63.0501 1.4246 61.4197C1.12837 60.6125 0.938384 60.1404 0.854077 60.0034C0.810768 59.932 0.754755 59.8727 0.686039 59.8267C0.583253 59.7616 0.354582 59.6885 -0.000549316 59.6079V59.3333C0.718376 59.3672 1.17803 59.3845 1.37725 59.3845C1.64172 59.3845 2.0673 59.3672 2.65283 59.3333V59.6079C2.28211 59.7011 2.06499 59.7725 2.00089 59.8226C1.9368 59.8721 1.90504 59.9332 1.90504 60.0045C1.90504 60.0696 1.97029 60.2964 2.10137 60.6845C2.68113 62.4387 3.13327 63.7289 3.4578 64.5545L4.738 61.122C4.52897 60.5538 4.38807 60.2055 4.31531 60.0782C4.24198 59.951 4.16633 59.8641 4.08837 59.8174C4.01042 59.7708 3.78925 59.7011 3.42488 59.6079V59.3333C4.00407 59.3672 4.45274 59.3845 4.77034 59.3845C5.10238 59.3845 5.53604 59.3672 6.07191 59.3333V59.6079L5.90388 59.6499C5.64518 59.6994 5.47887 59.7541 5.4038 59.8134C5.35703 59.8537 5.33393 59.9147 5.33393 59.9953C5.33393 60.0293 5.33682 60.0621 5.34317 60.0932C5.36165 60.1738 5.53489 60.6868 5.86172 61.6321L6.86649 64.4808C7.08187 63.8901 7.34057 63.1348 7.64316 62.2148L8.34014 60.088C8.34938 60.0449 8.354 60.0057 8.354 59.9717C8.354 59.9159 8.33667 59.8744 8.3026 59.848C8.26853 59.8215 8.0364 59.7414 7.6062 59.6079V59.3333C8.18538 59.3672 8.56419 59.3845 8.74146 59.3845C8.95339 59.3845 9.31025 59.3672 9.81148 59.3333V59.6079C9.45635 59.7011 9.23518 59.7817 9.14799 59.8503C9.09198 59.8969 9.03885 59.9746 8.98919 60.0834C8.90835 60.2602 8.5434 61.2591 7.89608 63.0789C7.8776 63.1256 7.5346 64.1273 6.86822 66.0836H6.546L5.3963 62.8924C5.29351 62.6068 5.15666 62.2482 4.98515 61.8164C4.57112 62.8815 4.05084 64.3035 3.42488 66.0831Z" fill="white"/>
<path d="M125.089 62.2491H126.22C126.656 62.2491 126.913 62.2376 126.99 62.214C127.068 62.191 127.131 62.1432 127.18 62.0718C127.228 62.0004 127.288 61.7937 127.359 61.4523C127.369 61.4184 127.383 61.3654 127.402 61.294H127.71C127.676 61.8064 127.659 62.2008 127.659 62.4771C127.659 62.7627 127.676 63.1542 127.71 63.651H127.402C127.311 63.2008 127.255 62.9492 127.234 62.8963C127.202 62.822 127.148 62.7685 127.07 62.7356C126.992 62.7034 126.76 62.6867 126.374 62.6867H125.094L125.118 65.426H127.075L127.249 65.4214C127.517 65.4214 127.685 65.4105 127.753 65.3886C127.872 65.3483 127.976 65.2809 128.066 65.1859C128.157 65.0915 128.323 64.8232 128.566 64.3822C128.591 64.339 128.629 64.2751 128.678 64.1911H129.001C128.963 64.2907 128.77 64.8745 128.421 65.9424C127.288 65.9085 126.252 65.8912 125.314 65.8912C124.66 65.8912 123.938 65.9085 123.146 65.9424V65.6678L123.903 65.5049C124.025 65.4709 124.1 65.4364 124.127 65.4024C124.174 65.3437 124.197 65.2205 124.197 65.0345V64.9505L124.221 63.8554C124.224 63.6441 124.226 63.2296 124.226 62.6119C124.226 61.7143 124.222 61.0568 124.216 60.6388C124.209 60.2214 124.194 59.9842 124.169 59.9284C124.151 59.891 124.121 59.861 124.082 59.8374C124.044 59.8144 123.899 59.7747 123.651 59.7188L123.146 59.6071V59.3325C123.731 59.3665 124.431 59.3838 125.244 59.3838C125.689 59.3838 126.749 59.3665 128.421 59.3325C128.427 59.8697 128.465 60.4011 128.533 60.9256H128.206C128.081 60.503 127.98 60.222 127.902 60.0821C127.849 59.986 127.784 59.9221 127.706 59.891C127.603 59.8507 127.376 59.8305 127.024 59.8305H125.136L125.104 61.3303L125.09 62.248L125.089 62.2491Z" fill="white"/>
<path d="M68.4676 121.03H68.1125C68.0317 120.631 67.9398 120.34 67.8371 120.156C67.7343 119.972 67.5778 119.828 67.3676 119.724C67.1574 119.619 66.9212 119.567 66.6596 119.567C66.2889 119.567 65.9938 119.669 65.7744 119.875C65.555 120.08 65.4453 120.329 65.4453 120.621C65.4453 120.879 65.5353 121.105 65.7161 121.298C65.8934 121.49 66.3276 121.734 67.0182 122.028C67.7089 122.322 68.1783 122.626 68.4272 122.941C68.6726 123.258 68.7956 123.614 68.7956 124.009C68.7956 124.364 68.7027 124.694 68.5173 124.998C68.3319 125.303 68.053 125.546 67.6806 125.728C67.3081 125.91 66.9074 126.001 66.4777 126.001C66.185 126.001 65.8911 125.973 65.5966 125.917C65.3021 125.861 64.9492 125.765 64.5381 125.628C64.5849 125.19 64.6085 124.61 64.6085 123.886H64.9683C65.0711 124.352 65.1773 124.678 65.2882 124.864C65.3985 125.051 65.5659 125.203 65.7894 125.323C66.0129 125.443 66.2589 125.502 66.5262 125.502C66.8929 125.502 67.2151 125.4 67.4917 125.195C67.7689 124.99 67.9069 124.702 67.9069 124.332C67.9069 124.031 67.8076 123.763 67.6078 123.53C67.4057 123.3 66.9668 123.04 66.2924 122.75C65.6179 122.459 65.1669 122.18 64.9394 121.913C64.7119 121.649 64.5981 121.334 64.5981 120.968C64.5981 120.649 64.69 120.344 64.8742 120.053C65.0584 119.763 65.328 119.534 65.6849 119.364C66.0418 119.195 66.4113 119.11 66.7948 119.11C67.2556 119.11 67.8134 119.221 68.4671 119.441C68.4515 119.895 68.444 120.168 68.444 120.261C68.444 120.451 68.4526 120.707 68.4676 121.03Z" fill="white"/>
</g>
<defs>
<clipPath id="clip0_365_76">
<rect width="129" height="126" rx="50" fill="white"/>
</clipPath>
</defs>
</svg>
