<svg width="24" height="30" viewBox="0 0 24 30" fill="none" xmlns="http://www.w3.org/2000/svg">
<g opacity="0.25" clip-path="url(#clip0_359_559)">
<path d="M12.544 29.8093C15.0687 29.8093 17.1154 23.1363 17.1154 14.9046C17.1154 6.67304 15.0687 0 12.544 0C10.0192 0 7.97253 6.67304 7.97253 14.9046C7.97253 23.1363 10.0192 29.8093 12.544 29.8093Z" fill="#F5F5F5"/>
<path d="M20.5714 27.87C22.4649 27.87 24 22.6269 24 16.1593C24 9.69161 22.4649 4.44855 20.5714 4.44855C18.6778 4.44855 17.1428 9.69161 17.1428 16.1593C17.1428 22.6269 18.6778 27.87 20.5714 27.87Z" fill="#F5F5F5"/>
<path d="M9.14286 30H0V0.189636H9.14286C6.61715 0.189636 4.57143 6.86571 4.57143 15.0954C4.57143 23.325 6.61715 30 9.14286 30Z" fill="#F5F5F5"/>
</g>
<defs>
<clipPath id="clip0_359_559">
<rect width="24" height="30" fill="white"/>
</clipPath>
</defs>
</svg>
