<svg width="27" height="36" viewBox="0 0 27 36" fill="none" xmlns="http://www.w3.org/2000/svg">
<g clip-path="url(#clip0_265_209)">
<path d="M14.112 35.7711C16.9523 35.7711 19.2548 27.7635 19.2548 17.8856C19.2548 8.00764 16.9523 0 14.112 0C11.2717 0 8.96912 8.00764 8.96912 17.8856C8.96912 27.7635 11.2717 35.7711 14.112 35.7711Z" fill="#F5F5F5"/>
<path d="M23.1429 33.4441C25.2731 33.4441 27.0001 27.1524 27.0001 19.3912C27.0001 11.6301 25.2731 5.33838 23.1429 5.33838C21.0127 5.33838 19.2858 11.6301 19.2858 19.3912C19.2858 27.1524 21.0127 33.4441 23.1429 33.4441Z" fill="#F5F5F5"/>
<path d="M10.2857 36H0V0.227539H10.2857C7.44429 0.227539 5.14286 8.23882 5.14286 18.1144C5.14286 27.99 7.44429 36 10.2857 36Z" fill="#F5F5F5"/>
</g>
<defs>
<clipPath id="clip0_265_209">
<rect width="27" height="36" fill="white"/>
</clipPath>
</defs>
</svg>
