<svg width="130" height="130" viewBox="0 0 130 130" fill="none" xmlns="http://www.w3.org/2000/svg">
<g clip-path="url(#clip0_331_451)">
<path d="M58.5142 16.0653C57.7953 16.1617 57.1334 16.1212 56.5286 15.944C55.9223 15.7562 55.4203 15.4629 55.0225 15.0642C54.6354 14.6641 54.3898 14.1965 54.2859 13.6616L56.522 13.362C56.6095 13.6946 56.8109 13.9528 57.1261 14.1366C57.4518 14.319 57.8314 14.3811 58.2649 14.323C58.6877 14.2663 59.0042 14.1378 59.2141 13.9375C59.4346 13.7358 59.5272 13.5028 59.4918 13.2384C59.4536 12.953 59.2773 12.7614 58.9629 12.6636C58.6576 12.5538 58.1765 12.4569 57.5195 12.3727C56.8428 12.302 56.2817 12.2103 55.8362 12.0979C55.4012 11.9839 55.0071 11.7731 54.6538 11.4653C54.3111 11.1561 54.1001 10.7054 54.0208 10.1134C53.9558 9.62704 54.0338 9.16458 54.2549 8.726C54.4865 8.286 54.8458 7.91499 55.3327 7.61299C55.8302 7.30956 56.4331 7.11039 57.1414 7.01547C58.1881 6.87523 59.0587 7.02762 59.7532 7.47266C60.4463 7.90712 60.884 8.56414 61.0663 9.44372L58.9413 9.72847C58.8629 9.38383 58.6781 9.12878 58.3869 8.96332C58.1048 8.78587 57.7471 8.72619 57.3136 8.78428C56.9119 8.83811 56.6099 8.95391 56.4077 9.13167C56.2161 9.30802 56.1379 9.52834 56.1733 9.79265C56.213 10.0887 56.3914 10.2962 56.7086 10.4151C57.0245 10.5234 57.5049 10.6151 58.1499 10.6901C58.8054 10.7637 59.3507 10.8574 59.7856 10.9713C60.2206 11.0852 60.6101 11.3021 60.9543 11.6219C61.3076 11.9297 61.5284 12.3736 61.6168 12.9537C61.6847 13.4612 61.6029 13.9349 61.3712 14.3749C61.1501 14.8135 60.7908 15.1845 60.2933 15.4879C59.805 15.7794 59.212 15.9718 58.5142 16.0653Z" fill="#F5F5F5"/>
<path d="M60.9987 10.9979C61.0136 10.0807 61.2132 9.28379 61.5975 8.60726C61.982 7.92007 62.5079 7.39519 63.1752 7.03262C63.8427 6.65939 64.603 6.47969 65.4562 6.49351C66.5548 6.51132 67.4568 6.80331 68.1624 7.36948C68.8788 7.92517 69.3517 8.70093 69.5809 9.69678L67.1652 9.65762C67.0435 9.2716 66.8297 8.96943 66.5238 8.75111C66.2288 8.5223 65.8574 8.40427 65.4094 8.39701C64.7695 8.38664 64.2591 8.61306 63.8782 9.07628C63.4975 9.52884 63.3002 10.1817 63.2864 11.035C63.2728 11.8775 63.4488 12.5364 63.8145 13.0118C64.1804 13.4764 64.6833 13.7139 65.3232 13.7243C66.2297 13.739 66.8282 13.3433 67.1186 12.5372L69.5343 12.5764C69.2735 13.5323 68.7758 14.287 68.0415 14.8405C67.3071 15.394 66.3959 15.6619 65.3081 15.6443C64.4549 15.6305 63.7007 15.4316 63.0454 15.0476C62.3904 14.6529 61.8818 14.1113 61.5196 13.4226C61.1575 12.7233 60.9839 11.9151 60.9987 10.9979Z" fill="#F5F5F5"/>
<path d="M72.3627 8.48328C72.7069 8.05348 73.1231 7.73486 73.6114 7.52742C74.1103 7.32131 74.656 7.25546 75.2487 7.32989L74.956 9.6636L74.3686 9.58984C73.6701 9.50212 73.1203 9.59971 72.7193 9.88262C72.3289 10.1669 72.0826 10.7164 71.9803 11.5314L71.4307 15.913L69.2081 15.6339L70.3114 6.83887L72.534 7.11798L72.3627 8.48328Z" fill="#F5F5F5"/>
<path d="M77.0708 17.1308C76.244 16.9196 75.546 16.5488 74.9769 16.0181C74.4103 15.4771 74.0215 14.8219 73.8105 14.0524C73.6098 13.2856 73.6215 12.4629 73.8456 11.5844C74.0697 10.7058 74.4586 9.97948 75.0124 9.4053C75.5765 8.83376 76.2406 8.45289 77.0046 8.26268C77.7713 8.06213 78.568 8.06742 79.3948 8.27855C80.2217 8.48967 80.9235 8.86705 81.5004 9.41067C82.0799 9.94396 82.4751 10.5953 82.6862 11.3648C82.9075 12.1369 82.9062 12.9622 82.6821 13.8408C82.458 14.7193 82.0587 15.443 81.4843 16.0119C80.9202 16.5835 80.2496 16.9682 79.4726 17.1661C78.7086 17.3563 77.908 17.3445 77.0708 17.1308ZM77.5533 15.2393C77.946 15.3396 78.3366 15.3403 78.7251 15.2413C79.1266 15.1347 79.4795 14.9165 79.7837 14.5869C80.088 14.2572 80.31 13.8185 80.4497 13.2707C80.658 12.4542 80.6004 11.7735 80.2771 11.2285C79.9667 10.6759 79.5015 10.3204 78.8814 10.1621C78.2613 10.0037 77.6827 10.0927 77.1456 10.4289C76.6215 10.7574 76.2552 11.33 76.047 12.1465C75.8387 12.963 75.8794 13.645 76.1691 14.1923C76.4718 14.732 76.9332 15.081 77.5533 15.2393Z" fill="#F5F5F5"/>
<path d="M87.5498 7.93019L83.4125 19.0238L81.3139 18.2403L85.4513 7.14671L87.5498 7.93019Z" fill="#F5F5F5"/>
<path d="M90.3502 9.11996L85.6651 19.9936L83.6083 19.1064L88.2934 8.23278L90.3502 9.11996Z" fill="#F5F5F5"/>
<path d="M97.1793 18.8746L96.186 20.4801L90.4186 16.9081L91.4119 15.3025L97.1793 18.8746Z" fill="#F5F5F5"/>
<path d="M98.4089 28.6836C97.8741 28.1936 97.4808 27.6597 97.229 27.0817C96.9843 26.4959 96.8874 25.9224 96.9382 25.3613C96.9968 24.8075 97.198 24.3191 97.5417 23.8962L99.2051 25.4202C99.0061 25.7008 98.9371 26.021 98.9983 26.3808C99.0672 26.7478 99.2629 27.0791 99.5854 27.3745C99.9 27.6627 100.201 27.8232 100.49 27.8558C100.786 27.8956 101.024 27.8172 101.204 27.6205C101.398 27.408 101.432 27.1498 101.306 26.8457C101.194 26.541 100.96 26.1095 100.603 25.5513C100.224 24.9865 99.9343 24.497 99.735 24.0829C99.5435 23.676 99.4525 23.2382 99.4621 22.7695C99.4795 22.3081 99.6899 21.8571 100.093 21.4164C100.424 21.0545 100.829 20.8177 101.307 20.706C101.793 20.6016 102.308 20.6393 102.852 20.8193C103.404 21.0065 103.943 21.3415 104.47 21.8243C105.249 22.5376 105.69 23.3036 105.794 24.1222C105.905 24.9329 105.682 25.6903 105.124 26.3945L103.543 24.9462C103.757 24.6649 103.834 24.3594 103.774 24.0298C103.73 23.6995 103.546 23.3866 103.224 23.0911C102.925 22.8173 102.642 22.6598 102.376 22.6187C102.118 22.5847 101.899 22.6661 101.719 22.8628C101.518 23.0831 101.473 23.3532 101.585 23.673C101.704 23.9849 101.942 24.4125 102.298 24.9556C102.662 25.506 102.94 25.9847 103.131 26.3916C103.323 26.7985 103.406 27.2366 103.381 27.7059C103.372 28.1746 103.173 28.6289 102.785 29.0688C102.439 29.4465 102.023 29.6876 101.537 29.7921C101.059 29.9037 100.544 29.8659 99.9925 29.6788C99.4559 29.4909 98.928 29.1592 98.4089 28.6836Z" fill="#F5F5F5"/>
<path d="M103.861 27.366C104.569 26.7827 105.305 26.4182 106.069 26.2724C106.841 26.1198 107.582 26.1801 108.29 26.4534C109.007 26.7198 109.636 27.1825 110.178 27.8414C110.876 28.6898 111.238 29.5662 111.264 30.4707C111.306 31.3767 111.021 32.2398 110.411 33.06L108.876 31.1945C109.091 30.8515 109.183 30.4927 109.151 30.1182C109.134 29.7452 108.983 29.3857 108.699 29.0397C108.292 28.5456 107.789 28.3036 107.189 28.3137C106.598 28.3171 105.973 28.5901 105.315 29.1327C104.664 29.6685 104.276 30.2297 104.151 30.8164C104.035 31.3964 104.18 31.9334 104.586 32.4276C105.162 33.1277 105.851 33.327 106.653 33.0257L108.189 34.8912C107.292 35.3122 106.395 35.4224 105.498 35.2218C104.6 35.0212 103.806 34.5009 103.115 33.6608C102.572 33.0019 102.235 32.2984 102.103 31.5504C101.979 30.7955 102.062 30.057 102.352 29.3346C102.65 28.6055 103.153 27.9493 103.861 27.366Z" fill="#F5F5F5"/>
<path d="M113.104 34.4612C113.655 34.4503 114.166 34.5659 114.638 34.8081C115.115 35.0593 115.515 35.4364 115.838 35.9393L113.858 37.2092L113.538 36.7108C113.159 36.118 112.732 35.7582 112.258 35.6314C111.79 35.5136 111.21 35.6764 110.518 36.1198L106.801 38.5041L105.593 36.6181L113.054 31.8322L114.262 33.7183L113.104 34.4612Z" fill="#F5F5F5"/>
<path d="M109.472 43.6056C109.105 42.8355 108.942 42.0619 108.985 41.2849C109.037 40.5032 109.291 39.7849 109.747 39.1297C110.207 38.4842 110.846 37.966 111.664 37.5751C112.482 37.1841 113.289 37.0173 114.085 37.0745C114.885 37.1413 115.603 37.4071 116.238 37.8718C116.883 38.3319 117.39 38.947 117.757 39.7171C118.125 40.4872 118.285 41.2679 118.237 42.0591C118.199 42.8458 117.952 43.5667 117.497 44.2218C117.046 44.8866 116.411 45.4144 115.593 45.8054C114.775 46.1963 113.964 46.3535 113.159 46.2771C112.359 46.2103 111.634 45.942 110.984 45.4722C110.348 45.0075 109.844 44.3853 109.472 43.6056ZM111.233 42.7639C111.408 43.1297 111.658 43.43 111.983 43.6649C112.322 43.9048 112.715 44.0359 113.163 44.0583C113.611 44.0806 114.09 43.9699 114.601 43.7261C115.361 43.3628 115.847 42.8824 116.058 42.2849C116.283 41.6925 116.258 41.1075 115.982 40.5299C115.707 39.9523 115.268 39.5651 114.665 39.3682C114.077 39.1763 113.403 39.2621 112.643 39.6254C111.883 39.9888 111.385 40.457 111.151 41.0302C110.93 41.6085 110.958 42.1863 111.233 42.7639Z" fill="#F5F5F5"/>
<path d="M123.248 45.7466L112.081 49.6819L111.337 47.569L122.504 43.6337L123.248 45.7466Z" fill="#F5F5F5"/>
<path d="M124.137 48.6803L112.786 52.0491L112.149 49.9015L123.5 46.5327L124.137 48.6803Z" fill="#F5F5F5"/>
<path d="M121.02 60.1613L119.151 60.4268L118.198 53.7101L120.067 53.4446L121.02 60.1613Z" fill="#F5F5F5"/>
<path d="M114.284 67.4104C114.317 66.6858 114.474 66.0416 114.756 65.4777C115.048 64.9143 115.426 64.4722 115.888 64.1515C116.351 63.8413 116.855 63.6826 117.399 63.6751L117.298 65.9289C116.955 65.9561 116.665 66.1085 116.428 66.3861C116.191 66.6744 116.063 67.0369 116.043 67.4738C116.024 67.9001 116.094 68.2342 116.254 68.4764C116.413 68.7291 116.626 68.8615 116.893 68.8736C117.18 68.8866 117.4 68.747 117.552 68.4549C117.714 68.1739 117.895 67.7176 118.094 67.086C118.284 66.4325 118.474 65.8965 118.664 65.478C118.853 65.0701 119.13 64.7196 119.496 64.4265C119.861 64.144 120.342 64.0162 120.938 64.0432C121.429 64.0653 121.87 64.224 122.262 64.5194C122.654 64.8254 122.956 65.2447 123.167 65.7774C123.377 66.3208 123.466 66.9495 123.434 67.6634C123.386 68.7183 123.082 69.5481 122.521 70.1528C121.97 70.7579 121.246 71.0722 120.348 71.0957L120.445 68.9539C120.798 68.9378 121.082 68.8011 121.296 68.5439C121.521 68.2978 121.643 67.9562 121.663 67.5194C121.681 67.1144 121.62 66.7967 121.481 66.5662C121.342 66.3464 121.139 66.2304 120.872 66.2184C120.574 66.2049 120.338 66.3438 120.165 66.6349C120.002 66.9265 119.827 67.3831 119.639 68.0046C119.45 68.6367 119.261 69.1567 119.072 69.5646C118.883 69.9725 118.6 70.3174 118.224 70.5994C117.859 70.8925 117.383 71.0312 116.796 71.0154C116.285 70.9923 115.833 70.8278 115.441 70.5218C115.049 70.2264 114.747 69.8071 114.537 69.2637C114.337 68.7315 114.252 68.1137 114.284 67.4104Z" fill="#F5F5F5"/>
<path d="M118.793 70.7545C119.695 70.9244 120.446 71.256 121.048 71.7493C121.661 72.2446 122.089 72.8518 122.333 73.5709C122.588 74.2919 122.637 75.0717 122.479 75.9103C122.276 76.99 121.836 77.8297 121.158 78.4293C120.49 79.0414 119.645 79.3761 118.625 79.4335L119.072 77.0592C119.473 77.0045 119.807 76.8449 120.074 76.5804C120.349 76.3284 120.528 75.9823 120.611 75.542C120.729 74.913 120.593 74.3717 120.2 73.9178C119.819 73.466 119.209 73.1611 118.37 73.003C117.542 72.847 116.863 72.9089 116.333 73.1889C115.813 73.4708 115.494 73.9263 115.375 74.5553C115.208 75.4463 115.496 76.1031 116.242 76.5258L115.795 78.9001C114.897 78.4812 114.237 77.863 113.816 77.0455C113.394 76.228 113.284 75.2846 113.485 74.2154C113.643 73.3768 113.967 72.6671 114.456 72.0863C114.956 71.5075 115.576 71.0979 116.316 70.8574C117.066 70.6189 117.892 70.5846 118.793 70.7545Z" fill="#F5F5F5"/>
<path d="M119.284 82.3687C119.645 82.7846 119.884 83.2513 120.001 83.769C120.114 84.2969 120.081 84.8457 119.901 85.4154L117.658 84.7078L117.836 84.1432C118.048 83.4717 118.05 82.9133 117.844 82.4679C117.634 82.0327 117.138 81.6916 116.355 81.4445L112.143 80.116L112.817 77.9796L121.27 80.6462L120.597 82.7826L119.284 82.3687Z" fill="#F5F5F5"/>
<path d="M109.936 85.4425C110.292 84.667 110.782 84.0471 111.406 83.5827C112.04 83.1227 112.754 82.8582 113.549 82.7892C114.339 82.7298 115.146 82.8895 115.97 83.2682C116.793 83.647 117.438 84.1605 117.903 84.8088C118.364 85.4667 118.619 86.1887 118.669 86.9747C118.729 87.7652 118.58 88.5482 118.224 89.3236C117.868 90.0991 117.371 90.7217 116.733 91.1913C116.104 91.6654 115.392 91.937 114.598 92.006C113.799 92.0848 112.987 91.9348 112.163 91.556C111.34 91.1773 110.7 90.6541 110.243 89.9864C109.782 89.3285 109.525 88.5994 109.469 87.7992C109.42 87.0132 109.575 86.2276 109.936 85.4425ZM111.709 86.2579C111.54 86.6262 111.469 87.0104 111.497 87.4105C111.529 87.8247 111.681 88.2112 111.95 88.5699C112.22 88.9287 112.611 89.2261 113.125 89.4623C113.891 89.8143 114.57 89.8803 115.164 89.6603C115.764 89.4545 116.197 89.0608 116.464 88.4792C116.731 87.8976 116.747 87.3122 116.513 86.7232C116.284 86.1484 115.787 85.6849 115.021 85.3329C114.256 84.9809 113.578 84.8981 112.987 85.0846C112.402 85.2852 111.976 85.6763 111.709 86.2579Z" fill="#F5F5F5"/>
<path d="M117.096 97.4224L106.929 91.3558L108.076 89.4316L118.243 95.4982L117.096 97.4224Z" fill="#F5F5F5"/>
<path d="M115.422 99.9715L105.568 93.4074L106.809 91.5426L116.663 98.1067L115.422 99.9715Z" fill="#F5F5F5"/>
<path d="M104.631 104.93L103.228 103.666L107.767 98.6246L109.17 99.8886L104.631 104.93Z" fill="#F5F5F5"/>
<path d="M94.7485 104.414C95.3257 103.975 95.9209 103.682 96.5342 103.537C97.1539 103.401 97.7352 103.407 98.2779 103.557C98.8122 103.714 99.2567 103.999 99.6114 104.412L97.8163 105.779C97.5758 105.533 97.2731 105.408 96.9084 105.404C96.5351 105.407 96.1745 105.54 95.8265 105.805C95.487 106.064 95.2756 106.332 95.1921 106.61C95.1002 106.894 95.135 107.143 95.2964 107.355C95.4707 107.584 95.7186 107.664 96.0402 107.593C96.3598 107.537 96.8258 107.384 97.4384 107.132C98.0614 106.859 98.5944 106.661 99.0372 106.538C99.4715 106.422 99.9182 106.411 100.377 106.503C100.828 106.603 101.234 106.89 101.596 107.366C101.893 107.756 102.054 108.197 102.078 108.687C102.094 109.185 101.966 109.685 101.692 110.188C101.409 110.698 100.984 111.169 100.415 111.602C99.575 112.242 98.7431 112.54 97.9195 112.497C97.1024 112.462 96.3972 112.107 95.8039 111.433L97.5099 110.134C97.7485 110.395 98.0351 110.525 98.37 110.525C98.7028 110.54 99.0432 110.415 99.3912 110.15C99.7137 109.904 99.9189 109.654 100.007 109.4C100.086 109.152 100.045 108.921 99.8837 108.709C99.703 108.471 99.4453 108.379 99.1108 108.433C98.7828 108.495 98.32 108.653 97.7224 108.907C97.1163 109.167 96.5961 109.355 96.1617 109.471C95.7274 109.587 95.2817 109.591 94.8245 109.484C94.3653 109.391 93.954 109.114 93.5904 108.653C93.2805 108.246 93.1175 107.794 93.1013 107.297C93.0766 106.806 93.2055 106.306 93.4878 105.796C93.7681 105.301 94.1884 104.84 94.7485 104.414Z" fill="#F5F5F5"/>
<path d="M95.0646 110.024C95.5114 110.825 95.7381 111.615 95.7447 112.393C95.7564 113.181 95.5645 113.899 95.169 114.547C94.7786 115.205 94.2109 115.742 93.4658 116.158C92.5065 116.693 91.5798 116.893 90.6856 116.757C89.7873 116.636 88.9895 116.201 88.2921 115.455L90.4016 114.277C90.7004 114.55 91.0368 114.704 91.4108 114.74C91.7806 114.79 92.1612 114.705 92.5523 114.487C93.1111 114.175 93.4392 113.723 93.5366 113.131C93.6391 112.549 93.4826 111.885 93.0669 111.139C92.6565 110.403 92.1739 109.922 91.6194 109.694C91.07 109.475 90.5159 109.522 89.9571 109.834C89.1655 110.276 88.846 110.918 88.9987 111.762L86.8893 112.939C86.6359 111.981 86.6881 111.079 87.0461 110.231C87.404 109.384 88.0579 108.695 89.0079 108.165C89.753 107.749 90.5051 107.543 91.2644 107.546C92.0289 107.559 92.7404 107.773 93.3988 108.187C94.0625 108.611 94.6178 109.223 95.0646 110.024Z" fill="#F5F5F5"/>
<path d="M86.4733 117.837C86.3853 118.38 86.18 118.863 85.8572 119.284C85.5246 119.709 85.082 120.036 84.5296 120.263L83.6355 118.087L84.183 117.862C84.834 117.594 85.2644 117.238 85.474 116.795C85.6738 116.355 85.6176 115.755 85.3054 114.995L83.6266 110.911L85.698 110.059L89.0679 118.257L86.9964 119.109L86.4733 117.837Z" fill="#F5F5F5"/>
<path d="M78.0982 112.636C78.9219 112.413 79.7119 112.392 80.4683 112.574C81.2275 112.766 81.8881 113.146 82.4501 113.712C83.0017 114.281 83.3959 115.003 83.6326 115.878C83.8694 116.753 83.8877 117.577 83.6878 118.349C83.4776 119.125 83.0866 119.783 82.5148 120.325C81.9458 120.877 81.2495 121.264 80.4258 121.487C79.6022 121.71 78.8056 121.727 78.0361 121.537C77.2694 121.358 76.605 120.985 76.0431 120.419C75.4708 119.856 75.0663 119.137 74.8296 118.261C74.5929 117.386 74.5848 116.56 74.8053 115.782C75.0156 115.006 75.4103 114.341 75.9896 113.787C76.5614 113.245 77.2642 112.862 78.0982 112.636ZM78.6078 114.52C78.2166 114.626 77.8761 114.818 77.5865 115.095C77.2893 115.385 77.0893 115.749 76.9865 116.186C76.8836 116.622 76.9059 117.114 77.0535 117.659C77.2735 118.473 77.6582 119.037 78.2076 119.353C78.7495 119.681 79.3293 119.762 79.9471 119.594C80.5648 119.427 81.0249 119.065 81.3273 118.508C81.6222 117.964 81.6596 117.285 81.4396 116.472C81.2196 115.658 80.849 115.085 80.3277 114.751C79.7989 114.43 79.2256 114.353 78.6078 114.52Z" fill="#F5F5F5"/>
<path d="M73.5391 125.798L71.6781 114.105L73.8902 113.753L75.7512 125.446L73.5391 125.798Z" fill="#F5F5F5"/>
<path d="M70.4919 126.146L69.2174 114.375L71.4443 114.133L72.7189 125.905L70.4919 126.146Z" fill="#F5F5F5"/>
<path d="M59.7473 121.038L59.8175 119.151L66.5968 119.404L66.5266 121.291L59.7473 121.038Z" fill="#F5F5F5"/>
<path d="M53.8437 113.126C54.5508 113.287 55.1566 113.557 55.6612 113.935C56.1634 114.323 56.531 114.774 56.7641 115.287C56.9867 115.797 57.0532 116.321 56.9633 116.858L54.764 116.356C54.7983 116.014 54.7001 115.701 54.4691 115.419C54.2278 115.134 53.894 114.943 53.4676 114.845C53.0517 114.75 52.7103 114.76 52.4436 114.874C52.1665 114.985 51.9982 115.171 51.9389 115.431C51.8748 115.712 51.9729 115.953 52.2332 116.155C52.4807 116.365 52.8975 116.624 53.4834 116.933C54.0925 117.236 54.5861 117.519 54.964 117.78C55.3316 118.039 55.627 118.375 55.8502 118.787C56.0631 119.197 56.103 119.693 55.9701 120.275C55.8609 120.753 55.6261 121.159 55.2655 121.493C54.8945 121.824 54.4282 122.045 53.8664 122.158C53.2943 122.268 52.6598 122.243 51.9631 122.084C50.9337 121.849 50.1715 121.401 49.6767 120.741C49.1795 120.091 48.9993 119.322 49.1363 118.435L51.2265 118.912C51.1793 119.262 51.2632 119.566 51.4781 119.823C51.6802 120.088 51.9944 120.269 52.4207 120.367C52.8159 120.457 53.1393 120.454 53.3909 120.359C53.6321 120.26 53.7823 120.081 53.8417 119.821C53.9081 119.53 53.8136 119.273 53.558 119.051C53.3001 118.839 52.8822 118.585 52.3042 118.289C51.7159 117.99 51.238 117.711 50.8704 117.452C50.5028 117.193 50.2138 116.853 50.0034 116.433C49.7801 116.021 49.7286 115.528 49.8487 114.954C49.9627 114.455 50.2051 114.039 50.5761 113.708C50.9366 113.375 51.403 113.153 51.9751 113.043C52.5345 112.941 53.1574 112.969 53.8437 113.126Z" fill="#F5F5F5"/>
<path d="M49.7396 116.963C49.4105 117.82 48.9492 118.499 48.3559 119.002C47.7587 119.516 47.0845 119.828 46.3333 119.939C45.5784 120.06 44.8027 119.967 44.0063 119.66C42.9809 119.266 42.2342 118.681 41.7662 117.907C41.2844 117.139 41.107 116.247 41.234 115.233L43.4888 116.101C43.4705 116.505 43.5674 116.863 43.7796 117.173C43.978 117.489 44.2862 117.728 44.7043 117.889C45.3016 118.119 45.8587 118.082 46.3755 117.778C46.8885 117.483 47.2981 116.938 47.6042 116.142C47.9066 115.355 47.9677 114.676 47.7877 114.104C47.6038 113.541 47.2132 113.145 46.6159 112.916C45.7697 112.59 45.0718 112.756 44.5221 113.413L42.2673 112.545C42.8407 111.737 43.5673 111.2 44.4471 110.932C45.3268 110.665 46.2744 110.727 47.2899 111.118C48.0863 111.424 48.7261 111.87 49.2094 112.456C49.6888 113.052 49.9803 113.736 50.0838 114.507C50.1834 115.288 50.0687 116.107 49.7396 116.963Z" fill="#F5F5F5"/>
<path d="M38.2312 115.351C37.7574 115.632 37.2555 115.782 36.7255 115.804C36.186 115.82 35.6523 115.689 35.1242 115.409L36.2229 113.33L36.7462 113.607C37.3685 113.936 37.9172 114.039 38.3923 113.916C38.8579 113.788 39.2825 113.361 39.6662 112.635L41.729 108.73L43.7091 109.778L39.5686 117.615L37.5885 116.568L38.2312 115.351Z" fill="#F5F5F5"/>
<path d="M36.8731 105.589C37.5719 106.079 38.0938 106.672 38.4387 107.37C38.7775 108.076 38.9097 108.827 38.8352 109.621C38.7521 110.41 38.4505 111.175 37.9305 111.918C37.4105 112.661 36.7901 113.203 36.0693 113.544C35.3397 113.88 34.584 114.001 33.8021 113.909C33.0141 113.826 32.2707 113.539 31.5719 113.05C30.8731 112.56 30.3499 111.959 30.0024 111.246C29.6487 110.542 29.5091 109.793 29.5836 108.999C29.6493 108.198 29.9421 107.427 30.4621 106.684C30.9821 105.941 31.6112 105.405 32.3495 105.076C33.0791 104.74 33.8422 104.618 34.639 104.707C35.4208 104.799 36.1656 105.093 36.8731 105.589ZM35.7536 107.188C35.4217 106.955 35.0565 106.817 34.6582 106.772C34.2449 106.73 33.8378 106.809 33.4368 107.01C33.0357 107.211 32.6731 107.543 32.3488 108.006C31.8656 108.696 31.6789 109.354 31.7888 109.978C31.8839 110.604 32.1935 111.102 32.7176 111.469C33.2417 111.836 33.8144 111.957 34.4355 111.833C35.0419 111.711 35.5867 111.304 36.07 110.614C36.5532 109.924 36.7561 109.271 36.6785 108.657C36.586 108.045 36.2777 107.555 35.7536 107.188Z" fill="#F5F5F5"/>
<path d="M23.8356 110.512L31.612 101.584L33.3004 103.056L25.524 111.984L23.8356 110.512Z" fill="#F5F5F5"/>
<path d="M21.6392 108.421L29.8453 99.8858L31.4591 101.439L23.2531 109.974L21.6392 108.421Z" fill="#F5F5F5"/>
<path d="M18.6609 96.8894L20.1537 95.7335L24.3041 101.1L22.8113 102.256L18.6609 96.8894Z" fill="#F5F5F5"/>
<path d="M20.9499 87.28C21.2789 87.9263 21.4601 88.5643 21.4933 89.1939C21.517 89.8283 21.4067 90.3993 21.1624 90.9069C20.9133 91.405 20.5536 91.7918 20.0834 92.0673L19.06 90.0568C19.3447 89.8638 19.5216 89.5881 19.5905 89.2298C19.6546 88.8619 19.5874 88.4831 19.389 88.0934C19.1954 87.7131 18.9694 87.4572 18.7109 87.3256C18.4475 87.1844 18.197 87.1744 17.9594 87.2955C17.7028 87.4262 17.5805 87.6562 17.5925 87.9853C17.5901 88.3098 17.658 88.7959 17.7963 89.4438C17.9538 90.1058 18.0533 90.6657 18.0948 91.1234C18.1315 91.5716 18.0631 92.0135 17.8899 92.449C17.7117 92.8749 17.3566 93.2236 16.8244 93.4948C16.3872 93.7176 15.9251 93.7974 15.4382 93.7343C14.9464 93.6617 14.4774 93.4458 14.0312 93.0866C13.5801 92.7178 13.1925 92.215 12.8683 91.5781C12.3892 90.637 12.2445 89.765 12.4342 88.962C12.6143 88.1638 13.0891 87.5328 13.8583 87.0689L14.831 88.9796C14.5319 89.1679 14.3526 89.4269 14.293 89.7566C14.219 90.0816 14.2813 90.439 14.4797 90.8287C14.6636 91.19 14.8728 91.4365 15.1075 91.5683C15.3374 91.6906 15.5711 91.6912 15.8087 91.5701C16.0748 91.4345 16.2113 91.1973 16.2184 90.8585C16.216 90.5245 16.1433 90.0408 16.0003 89.4073C15.8525 88.7643 15.7603 88.2187 15.7236 87.7705C15.6869 87.3222 15.7624 86.8827 15.9501 86.4519C16.1233 86.0164 16.4689 85.6607 16.9868 85.3848C17.443 85.1523 17.9169 85.0724 18.4087 85.145C18.8957 85.2081 19.3647 85.424 19.8157 85.7928C20.2524 86.1568 20.6305 86.6526 20.9499 87.28Z" fill="#F5F5F5"/>
<path d="M15.3734 86.585C14.5053 86.8812 13.6879 86.9629 12.9214 86.8299C12.1447 86.7004 11.4731 86.383 10.9064 85.8776C10.3296 85.3756 9.90362 84.7207 9.62834 83.913C9.27393 82.8731 9.24393 81.9253 9.53834 81.0698C9.81921 80.2076 10.3895 79.5002 11.2492 78.9476L12.0286 81.2345C11.7065 81.4796 11.4943 81.783 11.3922 82.1447C11.2766 82.4998 11.291 82.8893 11.4355 83.3133C11.642 83.9191 12.0275 84.3229 12.5921 84.5248C13.1467 84.73 13.8277 84.6949 14.6354 84.4194C15.4329 84.1473 15.9935 83.7587 16.3173 83.2538C16.631 82.7523 16.6846 82.1987 16.4781 81.5929C16.1856 80.7347 15.611 80.3053 14.7543 80.3045L13.975 78.0177C14.9627 77.9399 15.841 78.153 16.6101 78.657C17.3791 79.1611 17.9391 79.928 18.2901 80.9578C18.5654 81.7655 18.633 82.5426 18.493 83.2892C18.3429 84.0391 18.005 84.701 17.4794 85.2748C16.9436 85.8521 16.2416 86.2888 15.3734 86.585Z" fill="#F5F5F5"/>
<path d="M9.22801 76.6938C8.7092 76.5094 8.27183 76.2205 7.91591 75.8271C7.55777 75.4233 7.3168 74.9292 7.193 74.3449L9.49382 73.8569L9.61652 74.436C9.76243 75.1248 10.0347 75.6122 10.4333 75.8984C10.8298 76.1741 11.4297 76.2268 12.2332 76.0564L16.5531 75.1402L17.0173 77.3316L8.34621 79.1706L7.88195 76.9793L9.22801 76.6938Z" fill="#F5F5F5"/>
<path d="M15.856 69.4098C15.9278 70.2601 15.8063 71.0411 15.4917 71.7528C15.1665 72.4654 14.675 73.0475 14.0173 73.4991C13.3588 73.9401 12.5777 74.1987 11.6743 74.2751C10.7708 74.3514 9.9571 74.2221 9.23304 73.8872C8.50808 73.5416 7.93045 73.0391 7.50015 72.3797C7.05921 71.7211 6.80287 70.9667 6.73111 70.1164C6.65936 69.2661 6.78565 68.4793 7.10999 67.7561C7.4237 67.0338 7.9094 66.4469 8.56709 65.9952C9.22388 65.533 10.004 65.2637 10.9074 65.1874C11.8109 65.111 12.6255 65.251 13.3514 65.6071C14.0764 65.9527 14.6597 66.46 15.1016 67.1292C15.5319 67.7887 15.7834 68.5489 15.856 69.4098ZM13.9109 69.5741C13.8769 69.1702 13.7494 68.801 13.5284 68.4664C13.296 68.1221 12.9742 67.8602 12.563 67.6809C12.1518 67.5015 11.6645 67.4356 11.1012 67.4832C10.2615 67.5541 9.63729 67.8317 9.22855 68.3158C8.80829 68.7902 8.62506 69.3462 8.67888 69.984C8.73269 70.6217 9.0065 71.1392 9.50031 71.5363C9.9826 71.9238 10.6436 72.082 11.4833 72.0111C12.3229 71.9402 12.9538 71.6781 13.3759 71.225C13.7864 70.7621 13.9648 70.2118 13.9109 69.5741Z" fill="#F5F5F5"/>
<path d="M3.71678 62.5519L15.5543 62.7959L15.5082 65.0354L3.67067 64.7915L3.71678 62.5519Z" fill="#F5F5F5"/>
<path d="M3.91217 59.5174L15.7235 60.3415L15.5677 62.5761L3.75643 61.752L3.91217 59.5174Z" fill="#F5F5F5"/>
<path d="M10.8492 49.8316L12.693 50.2377L11.2351 56.8632L9.39132 56.4571L10.8492 49.8316Z" fill="#F5F5F5"/>
<path d="M19.6909 45.4458C19.4049 46.1123 19.0307 46.6598 18.5684 47.088C18.0962 47.5121 17.5871 47.7926 17.0408 47.9295C16.4988 48.0565 15.9716 48.0274 15.4591 47.8421L16.3487 45.7689C16.6791 45.8644 17.004 45.824 17.3234 45.6478C17.647 45.4617 17.895 45.1677 18.0674 44.7658C18.2357 44.3737 18.2877 44.0362 18.2234 43.7532C18.1633 43.4604 18.0108 43.2613 17.7657 43.1561C17.5011 43.0424 17.2462 43.0955 17.001 43.3152C16.7503 43.5209 16.4203 43.8842 16.0111 44.405C15.6034 44.9496 15.2369 45.3843 14.9119 45.709C14.591 46.0239 14.2079 46.2541 13.7625 46.3994C13.3213 46.535 12.8263 46.4849 12.2775 46.2491C11.8266 46.0555 11.4697 45.7512 11.2066 45.3364C10.9477 44.9118 10.8135 44.413 10.804 43.84C10.7987 43.2573 10.9369 42.6376 11.2187 41.9808C11.6351 41.0103 12.2124 40.3412 12.9506 39.9733C13.679 39.6013 14.4674 39.5627 15.3159 39.8575L14.4705 41.8278C14.1345 41.7182 13.8208 41.746 13.5294 41.9111C13.2325 42.0622 12.9978 42.3386 12.8253 42.7405C12.6655 43.113 12.61 43.4317 12.6589 43.6965C12.712 43.9514 12.8611 44.1316 13.1061 44.2368C13.3805 44.3547 13.6501 44.308 13.9149 44.0966C14.1699 43.8811 14.4949 43.5157 14.8901 43.0005C15.2895 42.4755 15.6496 42.0556 15.9704 41.7406C16.2912 41.4257 16.6772 41.2026 17.1282 41.0712C17.5736 40.9259 18.0679 40.9641 18.6111 41.1858C19.0816 41.3879 19.4462 41.7012 19.7051 42.1259C19.9682 42.5407 20.1024 43.0395 20.1077 43.6222C20.1074 44.191 19.9685 44.7988 19.6909 45.4458Z" fill="#F5F5F5"/>
<path d="M17.0263 39.9899C16.2505 39.5005 15.6734 38.9157 15.2951 38.2356C14.9077 37.5498 14.7325 36.8276 14.7693 36.0689C14.7971 35.3045 15.0385 34.5613 15.4935 33.8394C16.0793 32.9099 16.7972 32.2908 17.6473 31.9821C18.4942 31.6588 19.4024 31.6579 20.3722 31.9797L19.0841 34.0237C18.6911 33.9271 18.3219 33.9527 17.9766 34.1006C17.6279 34.2337 17.3341 34.4898 17.0953 34.8688C16.7541 35.4103 16.6824 35.9641 16.8803 36.5304C17.0692 37.091 17.5245 37.5989 18.2462 38.0542C18.9589 38.5039 19.6132 38.696 20.2092 38.6305C20.7962 38.5594 21.2602 38.2531 21.6015 37.7117C22.0849 36.9446 22.0577 36.2275 21.5199 35.5603L22.808 33.5164C23.4891 34.2362 23.8754 35.0537 23.9668 35.969C24.0582 36.8843 23.8139 37.8022 23.2338 38.7226C22.7789 39.4446 22.2172 39.9857 21.5489 40.346C20.8715 40.7006 20.1446 40.8537 19.3682 40.8053C18.5828 40.7512 17.8021 40.4794 17.0263 39.9899Z" fill="#F5F5F5"/>
<path d="M21.4029 28.3223C21.2275 27.8002 21.1846 27.2776 21.2742 26.7545C21.3706 26.2233 21.6103 25.7284 21.9933 25.2701L23.7974 26.7791L23.4178 27.2334C22.9664 27.7736 22.7512 28.289 22.7723 28.7794C22.8003 29.2617 23.1292 29.7663 23.7592 30.2933L27.1465 33.1266L25.7102 34.8455L18.9112 29.1584L20.3474 27.4395L21.4029 28.3223Z" fill="#F5F5F5"/>
<path d="M31.7728 28.5196C31.1402 29.0923 30.4456 29.4693 29.6891 29.6505C28.9255 29.8239 28.1648 29.7859 27.4072 29.5365C26.6575 29.2799 25.9786 28.8154 25.3705 28.1429C24.7624 27.4704 24.3721 26.7446 24.1996 25.9655C24.0351 25.1792 24.0846 24.415 24.3482 23.6728C24.6047 22.9226 25.0492 22.2612 25.6818 21.6885C26.3144 21.1159 27.0165 20.7393 27.7881 20.5588C28.5525 20.3704 29.3135 20.4009 30.0711 20.6502C30.8367 20.8925 31.5235 21.3498 32.1316 22.0223C32.7397 22.6948 33.1221 23.4278 33.2787 24.2212C33.4433 25.0075 33.3933 25.7793 33.129 26.5366C32.8654 27.2788 32.4133 27.9398 31.7728 28.5196ZM30.4636 27.0718C30.764 26.7998 30.9804 26.4745 31.1126 26.0958C31.2455 25.7021 31.2587 25.2873 31.1521 24.8514C31.0456 24.4155 30.8027 23.9879 30.4235 23.5686C29.8583 22.9436 29.2594 22.6152 28.6268 22.5836C27.995 22.5369 27.4418 22.7283 26.9673 23.1578C26.4929 23.5874 26.2474 24.119 26.2308 24.7527C26.215 25.3713 26.4896 25.9931 27.0548 26.6181C27.62 27.2432 28.2106 27.5862 28.8267 27.6472C29.4435 27.6931 29.9891 27.5013 30.4636 27.0718Z" fill="#F5F5F5"/>
<path d="M30.6505 14.17L37.4735 23.8464L35.6435 25.1381L28.8205 15.4618L30.6505 14.17Z" fill="#F5F5F5"/>
<path d="M34.0079 12.0511L40.1919 22.1479L38.2823 23.3188L32.0983 13.222L34.0079 12.0511Z" fill="#F5F5F5"/>
<path d="M47.5147 11.5319L48.2008 13.2908L41.8816 15.7586L41.1955 13.9998L47.5147 11.5319Z" fill="#F5F5F5"/>
</g>
<defs>
<clipPath id="clip0_331_451">
<rect width="130" height="130" fill="white"/>
</clipPath>
</defs>
</svg>
