<svg width="1014" height="791" viewBox="0 0 1014 791" fill="none" xmlns="http://www.w3.org/2000/svg">
<path d="M1.8661 440.84C1.8661 440.84 23.0906 1.90921 152.206 1.79059C242.41 1.70772 247.717 437.075 247.717 437.075C247.717 437.075 247.717 785.727 192.887 789.317C160.48 791.438 122.138 607.732 122.138 437.19C122.138 224.814 208.525 0.358409 302.546 63.5957C394.519 125.454 390.982 435.174 390.982 435.174C390.982 435.174 388.329 736.843 340.459 739.977C301.933 742.499 278.69 594.655 278.69 437.047C278.69 238.828 360.914 42.3044 461.366 115.553C536.018 174.879 530.292 436.815 530.292 436.815C530.292 436.815 525.467 681.069 488.157 683.721C458.129 685.854 439.057 570.33 440.506 436.898C442.274 274.074 507.717 123.581 587.309 157.134C661.083 188.234 664.713 438.462 664.713 438.462C664.713 438.462 660.678 633.825 629.478 636.042C604.37 637.826 589.221 548.344 589.221 436.761C589.221 266.86 659.173 165.888 705.81 187.112C771.831 217.155 767.296 436.598 767.296 436.598C767.296 436.598 763.656 610.169 735.512 612.169C712.862 613.777 699.197 539.084 699.197 438.43C699.197 318.083 766.436 158.794 818.482 223.431C863.224 278.997 860.569 438.282 860.569 438.282C860.569 438.282 857.622 568.742 834.841 570.359C816.507 571.663 805.445 518.041 805.445 436.563C805.445 321.525 868.53 232.977 905.672 263.03C942.815 293.082 947.235 438.202 947.235 438.202C947.235 438.202 944.816 537.248 926.108 538.577C911.053 539.647 901.675 505.151 901.969 438.244C901.969 353.293 941.045 257.688 978.117 281.946C1013.46 305.071 1012.68 437.438 1012.68 437.438" stroke="black" stroke-width="2" stroke-miterlimit="10"/>
</svg>
