<svg width="130" height="130" viewBox="0 0 130 130" fill="none" xmlns="http://www.w3.org/2000/svg">
<g clip-path="url(#clip0_365_270)">
<path d="M44.2138 13.7452C44.833 13.5829 45.4351 13.6469 46.0201 13.9371C46.605 14.2273 47.0385 14.6715 47.3205 15.2697C47.5752 15.81 47.6653 16.3512 47.5908 16.8935C47.5213 17.4216 47.2904 17.9197 46.8979 18.3879C46.5054 18.856 45.9666 19.2517 45.2816 19.5747L40.9258 21.6291L36.1634 11.5275L40.3311 9.56179C41.0161 9.23873 41.6569 9.07213 42.2535 9.06198C42.8598 9.04728 43.3816 9.17856 43.8189 9.45584C44.2659 9.72856 44.6077 10.1158 44.8442 10.6175C45.1217 11.206 45.1945 11.7732 45.0626 12.3189C44.9404 12.8601 44.6574 13.3355 44.2138 13.7452ZM40.1544 14.7399L42.0067 13.8663C42.4891 13.6388 42.8105 13.3575 42.9709 13.0224C43.1267 12.6776 43.1091 12.3026 42.9181 11.8974C42.7271 11.4922 42.449 11.24 42.0839 11.141C41.7188 11.0419 41.295 11.1062 40.8127 11.3337L38.9603 12.2073L40.1544 14.7399ZM44.2144 18.0614C44.7064 17.8293 45.0329 17.5338 45.1939 17.1749C45.3645 16.8113 45.3497 16.4173 45.1496 15.9928C44.9449 15.5586 44.641 15.2892 44.2378 15.1845C43.8302 15.0702 43.3803 15.129 42.8883 15.3611L40.8912 16.303L42.174 19.0237L44.2144 18.0614Z" fill="#FB7941"/>
<path d="M45.8538 14.3701C45.6037 13.5097 45.5509 12.6975 45.6954 11.9334C45.8501 11.1664 46.1673 10.5187 46.6469 9.99047C47.1367 9.45923 47.7453 9.08787 48.4725 8.8764C49.1075 8.69174 49.6978 8.65894 50.2434 8.778C50.7992 8.89408 51.2771 9.10503 51.677 9.41086L51.3242 8.1971L53.4905 7.56716L55.9646 16.0789L53.7984 16.7088L53.4366 15.4643C53.2762 15.9442 52.9889 16.3888 52.5746 16.7981C52.1677 17.1941 51.6467 17.4845 51.0116 17.6691C50.2947 17.8776 49.5856 17.8839 48.8843 17.6879C48.1933 17.4889 47.5769 17.1072 47.0352 16.5427C46.5007 15.9649 46.1069 15.2407 45.8538 14.3701ZM52.5613 12.453C52.4094 11.9306 52.1775 11.5148 51.8655 11.2056C51.5505 10.8862 51.1905 10.6798 50.7857 10.5865C50.3779 10.4829 49.9743 10.4892 49.5749 10.6053C49.1754 10.7215 48.835 10.926 48.5535 11.2189C48.2721 11.5118 48.0789 11.879 47.974 12.3206C47.8763 12.7489 47.9019 13.2191 48.0508 13.7312C48.1997 14.2434 48.4331 14.6643 48.7511 14.9939C49.0763 15.3104 49.4377 15.5219 49.8353 15.6284C50.2431 15.732 50.6416 15.7272 51.0308 15.614C51.4302 15.4979 51.7758 15.2919 52.0675 14.996C52.3562 14.6899 52.5493 14.3226 52.647 13.8943C52.7417 13.4558 52.7131 12.9753 52.5613 12.453Z" fill="#FB7941"/>
<path d="M54.3157 12.0145C54.1971 11.1049 54.2789 10.2874 54.5609 9.56224C54.8415 8.82647 55.2856 8.23074 55.8931 7.77505C56.4993 7.30879 57.2255 7.02051 58.0716 6.91021C59.1611 6.76821 60.096 6.92603 60.8763 7.38367C61.6659 7.82936 62.2464 8.52819 62.6178 9.48016L60.2221 9.79244C60.0455 9.4282 59.7901 9.16031 59.4558 8.98874C59.1307 8.80522 58.746 8.74242 58.3018 8.80032C57.6672 8.88305 57.1951 9.18123 56.8855 9.69489C56.5746 10.198 56.4742 10.8726 56.5845 11.7188C56.6933 12.5544 56.9632 13.1808 57.394 13.5979C57.8235 14.0045 58.3555 14.1664 58.9902 14.0837C59.8892 13.9665 60.4239 13.488 60.5942 12.6483L62.9899 12.336C62.8707 13.3197 62.4879 14.1387 61.8417 14.793C61.1955 15.4474 60.333 15.8449 59.2541 15.9855C58.4079 16.0958 57.6328 16.0086 56.9288 15.7239C56.2234 15.4286 55.6415 14.9666 55.1831 14.3379C54.7233 13.6986 54.4342 12.9242 54.3157 12.0145Z" fill="#FB7941"/>
<path d="M67.7191 15.5565L64.7727 11.7322L64.7114 15.5077L62.4717 15.4713L62.6637 3.6329L64.9034 3.66923L64.7942 10.4043L67.8307 6.6931L70.7424 6.74032L66.7668 11.1244L70.6307 15.6037L67.7191 15.5565Z" fill="#FB7941"/>
<path d="M75.463 9.45042L74.7557 13.6797C74.7064 13.9742 74.7387 14.2014 74.8526 14.361C74.9788 14.5119 75.2102 14.6155 75.5468 14.6718L76.5726 14.8435L76.2611 16.7056L74.8724 16.4732C73.0103 16.1617 72.2306 15.1011 72.5332 13.2916L73.2379 9.07811L72.1964 8.90384L72.5 7.08905L73.5415 7.26332L73.9031 5.10135L76.1281 5.47366L75.7665 7.63563L77.7233 7.96304L77.4198 9.77783L75.463 9.45042Z" fill="#FB7941"/>
<path d="M79.4029 17.7949C78.5838 17.5554 77.8991 17.1607 77.3487 16.6107C76.8012 16.0505 76.4354 15.3823 76.2512 14.6061C76.0773 13.8329 76.1175 13.0111 76.372 12.1409C76.6265 11.2707 77.0405 10.5582 77.6139 10.0035C78.1975 9.45185 78.8745 9.09415 79.6447 8.93043C80.418 8.75647 81.2141 8.78925 82.0331 9.02877C82.8521 9.26829 83.5405 9.66963 84.0982 10.2328C84.6589 10.7857 85.0313 11.4503 85.2155 12.2266C85.4099 13.0058 85.3799 13.8305 85.1254 14.7007C84.8709 15.571 84.4467 16.2804 83.8528 16.8291C83.2692 17.3808 82.5856 17.7421 81.8022 17.9131C81.0319 18.0768 80.2321 18.0374 79.4029 17.7949ZM79.9508 15.9214C80.3398 16.0351 80.7302 16.0493 81.1219 15.9638C81.5269 15.8711 81.8872 15.6653 82.2027 15.3463C82.5182 15.0274 82.7553 14.5966 82.914 14.054C83.1505 13.2452 83.1167 12.563 82.8124 12.0072C82.5214 11.4443 82.0688 11.073 81.4545 10.8933C80.8402 10.7137 80.2589 10.7826 79.7104 11.1001C79.1751 11.4103 78.7892 11.9698 78.5527 12.7786C78.3162 13.5874 78.3332 14.2703 78.6037 14.8273C78.8875 15.377 79.3365 15.7417 79.9508 15.9214Z" fill="#FB7941"/>
<path d="M90.8975 14.7592L89.0041 18.6066C88.8723 18.8745 88.8379 19.1014 88.9011 19.287C88.9786 19.4678 89.1704 19.6336 89.4766 19.7844L90.4097 20.2437L89.5761 21.9377L88.3129 21.3158C86.619 20.4819 86.1771 19.2419 86.9872 17.5958L88.8735 13.7627L87.9261 13.2963L88.7385 11.6454L89.6859 12.1118L90.6538 10.1451L92.6778 11.1415L91.7099 13.1083L93.4899 13.9846L92.6775 15.6355L90.8975 14.7592Z" fill="#FB7941"/>
<path d="M92.2644 23.88C91.5485 23.4155 91.0058 22.8409 90.6362 22.1562C90.2724 21.4625 90.1136 20.7173 90.1597 19.9208C90.2148 19.1301 90.489 18.3544 90.9823 17.5937C91.4756 16.8329 92.0764 16.2691 92.7847 15.9022C93.502 15.541 94.253 15.3925 95.0378 15.4566C95.8284 15.5117 96.5816 15.7715 97.2975 16.2359C98.0134 16.7004 98.5577 17.2823 98.9305 17.9818C99.309 18.6724 99.4752 19.416 99.4291 20.2125C99.3919 21.0148 99.1267 21.7963 98.6334 22.5571C98.1401 23.3178 97.5303 23.8758 96.8041 24.2311C96.0868 24.5923 95.3284 24.7424 94.5289 24.6814C93.7441 24.6173 92.9893 24.3502 92.2644 23.88ZM93.3265 22.2422C93.6665 22.4628 94.0364 22.5883 94.4362 22.6188C94.8507 22.6461 95.2548 22.5522 95.6485 22.3372C96.0422 22.1222 96.3929 21.7775 96.7005 21.3032C97.1589 20.5961 97.3221 19.9328 97.19 19.3131C97.0727 18.6902 96.7456 18.2046 96.2086 17.8563C95.6717 17.508 95.095 17.4073 94.4786 17.5541C93.8769 17.6978 93.3468 18.1231 92.8883 18.8302C92.4299 19.5372 92.2503 20.1963 92.3498 20.8076C92.464 21.4156 92.7896 21.8938 93.3265 22.2422Z" fill="#FB7941"/>
<path d="M102.077 21.6116C102.562 21.5028 103.08 21.5169 103.631 21.654C104.197 21.7902 104.722 22.0758 105.206 22.511C105.769 23.0175 106.152 23.6129 106.354 24.2971C106.564 24.9885 106.569 25.7097 106.367 26.4606C106.18 27.2108 105.783 27.923 105.177 28.5971C104.571 29.2713 103.898 29.7489 103.157 30.0298C102.432 30.3099 101.711 30.3858 100.994 30.2576C100.285 30.1365 99.6495 29.8227 99.0865 29.3162C98.6027 28.881 98.2637 28.3967 98.0693 27.8631C97.8828 27.3366 97.8101 26.8193 97.8511 26.311L94.1816 30.3917L92.5163 28.8936L101.268 19.1617L102.933 20.6598L102.077 21.6116ZM103.476 27.0669C103.833 26.6703 104.056 26.2544 104.146 25.819C104.252 25.3829 104.237 24.9682 104.103 24.5749C103.977 24.1888 103.759 23.8567 103.45 23.5784C103.149 23.3074 102.792 23.1298 102.38 23.0459C101.982 22.9612 101.569 22.9907 101.138 23.1343C100.716 23.2851 100.326 23.5588 99.9694 23.9554C99.6128 24.3519 99.3819 24.7683 99.2766 25.2044C99.1792 25.6477 99.19 26.0664 99.3091 26.4604C99.4432 26.8537 99.6609 27.1858 99.9623 27.4569C100.272 27.7351 100.628 27.9126 101.033 27.9894C101.445 28.0734 101.862 28.0399 102.285 27.8891C102.715 27.7455 103.112 27.4714 103.476 27.0669Z" fill="#FB7941"/>
<path d="M112.469 34.8172L110.949 35.9367L106.927 30.4732L108.447 29.3537L112.469 34.8172Z" fill="#FB7941"/>
<path d="M116.329 44.4772C116.488 45.0974 116.421 45.6992 116.127 46.2826C115.834 46.8661 115.388 47.2973 114.788 47.5762C114.246 47.8281 113.705 47.9154 113.163 47.838C112.635 47.7658 112.138 47.5321 111.672 47.1371C111.206 46.7421 110.814 46.2013 110.495 45.5145L108.464 41.1474L118.591 36.4376L120.533 40.6161C120.852 41.3028 121.016 41.9446 121.022 42.5413C121.034 43.1478 120.9 43.6689 120.62 44.1049C120.345 44.5505 119.956 44.8902 119.453 45.1241C118.863 45.3985 118.296 45.4683 117.751 45.3336C117.21 45.2085 116.736 44.923 116.329 44.4772ZM115.357 40.4121L116.22 42.2692C116.445 42.7528 116.724 43.0758 117.059 43.2379C117.402 43.3956 117.778 43.38 118.184 43.1911C118.59 43.0022 118.844 42.7254 118.945 42.3608C119.046 41.9961 118.984 41.572 118.759 41.0884L117.895 39.2313L115.357 40.4121ZM112.014 44.4551C112.243 44.9484 112.537 45.2765 112.895 45.4394C113.257 45.6119 113.651 45.5992 114.077 45.4013C114.512 45.1988 114.783 44.8963 114.89 44.4937C115.006 44.0866 114.95 43.6363 114.721 43.143L113.79 41.1409L111.062 42.4094L112.014 44.4551Z" fill="#FB7941"/>
<path d="M115.69 46.0995C116.552 45.8537 117.364 45.8049 118.128 45.9532C118.894 46.1117 119.54 46.4321 120.066 46.9144C120.594 47.4069 120.962 48.0173 121.17 48.7456C121.351 49.3816 121.381 49.9721 121.259 50.5171C121.14 51.0724 120.927 51.5492 120.619 51.9476L121.835 51.6008L122.453 53.7703L113.93 56.2023L113.311 54.0328L114.557 53.6772C114.078 53.5144 113.635 53.2248 113.228 52.8086C112.834 52.3996 112.546 51.8772 112.365 51.2412C112.16 50.5231 112.158 49.814 112.357 49.1137C112.56 48.4236 112.945 47.8091 113.512 47.2701C114.092 46.7385 114.818 46.3483 115.69 46.0995ZM117.573 52.8168C118.096 52.6676 118.513 52.4377 118.824 52.1272C119.145 51.8137 119.353 51.4548 119.448 51.0505C119.554 50.6432 119.55 50.2395 119.436 49.8395C119.321 49.4394 119.119 49.0979 118.827 48.815C118.536 48.5321 118.17 48.3371 117.729 48.23C117.301 48.1302 116.831 48.1535 116.318 48.2998C115.805 48.4461 115.383 48.6775 115.052 48.9938C114.733 49.3175 114.52 49.6779 114.412 50.0749C114.306 50.4822 114.309 50.8807 114.42 51.2705C114.534 51.6706 114.738 52.0172 115.032 52.3103C115.337 52.6006 115.703 52.7956 116.131 52.8954C116.569 52.9923 117.05 52.9661 117.573 52.8168Z" fill="#FB7941"/>
<path d="M118 54.5592C118.91 54.445 119.727 54.5305 120.451 54.8159C121.186 55.1 121.779 55.5469 122.232 56.1565C122.695 56.7649 122.98 57.4924 123.086 58.3391C123.223 59.4292 123.061 60.3634 122.6 61.1416C122.15 61.929 121.448 62.5062 120.495 62.8732L120.194 60.476C120.559 60.3012 120.828 60.047 121.001 59.7135C121.186 59.3893 121.251 59.0049 121.195 58.5604C121.116 57.9254 120.82 57.4519 120.307 57.1399C119.806 56.8266 119.132 56.7231 118.285 56.8294C117.449 56.9344 116.821 57.2013 116.402 57.6302C115.993 58.0578 115.829 58.589 115.909 59.2241C116.022 60.1237 116.497 60.6606 117.336 60.8348L117.637 63.232C116.654 63.1081 115.837 62.7216 115.186 62.0723C114.534 61.423 114.141 60.5586 114.006 59.4791C113.899 58.6324 113.99 57.8577 114.278 57.155C114.577 56.451 115.042 55.8713 115.673 55.4158C116.314 54.959 117.09 54.6735 118 54.5592Z" fill="#FB7941"/>
<path d="M114.406 67.9426L118.23 64.9963L114.455 64.935L114.491 62.6953L126.33 62.8873L126.293 65.127L119.558 65.0178L123.27 68.0544L123.222 70.966L118.838 66.9904L114.359 70.8542L114.406 67.9426Z" fill="#FB7941"/>
<path d="M120.46 75.7421L116.234 75.0127C115.94 74.9619 115.713 74.9931 115.552 75.1061C115.401 75.2315 115.296 75.4624 115.238 75.7987L115.061 76.8236L113.201 76.5025L113.44 75.115C113.761 73.2545 114.826 72.4802 116.634 72.7923L120.843 73.5189L121.023 72.4783L122.836 72.7912L122.657 73.8319L124.817 74.2047L124.433 76.4279L122.273 76.055L121.936 78.0101L120.122 77.6972L120.46 75.7421Z" fill="#FB7941"/>
<path d="M112.103 79.6164C112.346 78.7985 112.744 78.1156 113.296 77.5677C113.859 77.0229 114.529 76.6602 115.306 76.4796C116.08 76.3093 116.901 76.3534 117.77 76.6119C118.639 76.8705 119.35 77.2878 119.902 77.8638C120.451 78.45 120.805 79.1286 120.966 79.8997C121.136 80.6737 121.1 81.4697 120.856 82.2877C120.613 83.1056 120.209 83.7921 119.643 84.3471C119.087 84.9052 118.421 85.2746 117.644 85.4552C116.864 85.646 116.039 85.6121 115.17 85.3535C114.301 85.095 113.594 84.6674 113.048 84.071C112.499 83.4848 112.141 82.7995 111.973 82.0152C111.813 81.2442 111.856 80.4446 112.103 79.6164ZM113.974 80.1731C113.858 80.5616 113.842 80.9519 113.926 81.3441C114.017 81.7495 114.221 82.1107 114.538 82.4277C114.856 82.7448 115.285 82.9839 115.827 83.1451C116.635 83.3854 117.317 83.3547 117.874 83.0531C118.439 82.7647 118.812 82.3138 118.995 81.7003C119.177 81.0869 119.111 80.5052 118.796 79.9552C118.488 79.4185 117.93 79.03 117.123 78.7897C116.315 78.5493 115.632 78.5632 115.074 78.8311C114.523 79.1123 114.156 79.5596 113.974 80.1731Z" fill="#FB7941"/>
<path d="M115.069 91.161L111.232 89.2467C110.965 89.1134 110.738 89.0778 110.552 89.14C110.371 89.2165 110.205 89.4074 110.052 89.7129L109.588 90.6436L107.899 89.8007L108.527 88.5407C109.37 86.8511 110.612 86.4159 112.253 87.235L116.076 89.1422L116.547 88.1972L118.194 89.0186L117.723 89.9636L119.684 90.9422L118.677 92.9611L116.716 91.9825L115.83 93.758L114.184 92.9365L115.069 91.161Z" fill="#FB7941"/>
<path d="M105.944 92.4796C106.412 91.7661 106.989 91.2263 107.675 90.8603C108.371 90.5001 109.117 90.3452 109.913 90.3955C110.703 90.4548 111.477 90.7331 112.235 91.2305C112.993 91.7279 113.554 92.3318 113.917 93.0422C114.275 93.7615 114.419 94.5134 114.351 95.298C114.292 96.0884 114.028 96.8404 113.56 97.5539C113.092 98.2675 112.508 98.8088 111.806 99.1779C111.114 99.5528 110.37 99.7151 109.574 99.6648C108.772 99.6234 107.992 99.3539 107.234 98.8565C106.475 98.3591 105.921 97.7463 105.569 97.0181C105.212 96.2988 105.066 95.5395 105.131 94.7402C105.199 93.9556 105.47 93.2021 105.944 92.4796ZM107.576 93.5505C107.353 93.8894 107.226 94.2587 107.193 94.6584C107.164 95.0728 107.256 95.4775 107.469 95.8724C107.682 96.2673 108.024 96.6198 108.497 96.93C109.202 97.3923 109.864 97.559 110.484 97.4301C111.108 97.3161 111.595 96.9915 111.946 96.4563C112.297 95.9212 112.401 95.3449 112.257 94.7276C112.116 94.1251 111.694 93.5926 110.989 93.1303C110.285 92.6681 109.627 92.485 109.015 92.5813C108.406 92.6922 107.927 93.0153 107.576 93.5505Z" fill="#FB7941"/>
<path d="M108.161 102.306C108.267 102.792 108.25 103.31 108.111 103.86C107.971 104.426 107.683 104.949 107.246 105.431C106.736 105.991 106.139 106.371 105.454 106.57C104.762 106.777 104.041 106.777 103.291 106.571C102.542 106.38 101.832 105.98 101.161 105.37C100.49 104.76 100.016 104.084 99.739 103.342C99.4627 102.616 99.3905 101.894 99.5224 101.178C99.6472 100.47 99.9642 99.8352 100.474 99.2747C100.911 98.7932 101.397 98.4566 101.932 98.2649C102.459 98.0811 102.977 98.0111 103.484 98.0548L99.4236 94.3633L100.93 92.7055L110.615 101.509L109.108 103.167L108.161 102.306ZM102.7 103.677C103.094 104.036 103.509 104.261 103.944 104.354C104.379 104.461 104.794 104.449 105.188 104.317C105.574 104.193 105.908 103.977 106.187 103.669C106.46 103.369 106.639 103.013 106.725 102.601C106.812 102.204 106.785 101.79 106.643 101.359C106.495 100.936 106.223 100.545 105.829 100.186C105.434 99.8271 105.019 99.5939 104.583 99.4863C104.141 99.3866 103.722 99.3953 103.328 99.5123C102.934 99.6444 102.6 99.8604 102.328 100.16C102.048 100.468 101.869 100.824 101.79 101.228C101.704 101.64 101.735 102.058 101.884 102.481C102.025 102.912 102.297 103.311 102.7 103.677Z" fill="#FB7941"/>
<path d="M94.9061 112.634L93.7948 111.107L99.2785 107.113L100.39 108.64L94.9061 112.634Z" fill="#FB7941"/>
<path d="M85.2632 116.43C84.6423 116.586 84.0409 116.517 83.4589 116.221C82.8768 115.925 82.4478 115.476 82.1717 114.875C81.9223 114.332 81.8376 113.79 81.9175 113.249C81.9922 112.721 82.2281 112.226 82.6252 111.761C83.0223 111.297 83.5649 110.907 84.253 110.59L88.629 108.579L93.2912 118.728L89.1043 120.652C88.4161 120.968 87.7737 121.128 87.177 121.133C86.5706 121.141 86.0501 121.005 85.6156 120.723C85.1713 120.446 84.8334 120.056 84.6018 119.552C84.3302 118.96 84.263 118.393 84.4003 117.848C84.5279 117.308 84.8155 116.836 85.2632 116.43ZM89.3322 115.476L87.4714 116.331C86.9868 116.554 86.6626 116.832 86.4989 117.165C86.3396 117.509 86.3535 117.884 86.5405 118.291C86.7275 118.698 87.0031 118.953 87.3672 119.055C87.7313 119.158 88.1557 119.098 88.6403 118.875L90.5011 118.02L89.3322 115.476ZM85.3053 112.114C84.811 112.341 84.4816 112.634 84.3171 112.991C84.1429 113.353 84.1537 113.747 84.3497 114.174C84.55 114.61 84.8513 114.882 85.2534 114.991C85.6599 115.109 86.1103 115.055 86.6046 114.828L88.6109 113.906L87.3551 111.172L85.3053 112.114Z" fill="#FB7941"/>
<path d="M83.6219 115.792C83.8633 116.654 83.9079 117.467 83.7557 118.23C83.5933 118.995 83.2696 119.64 82.7847 120.163C82.2895 120.689 81.6772 121.054 80.9479 121.258C80.311 121.437 79.7204 121.464 79.1761 121.339C78.6215 121.217 78.1457 121.002 77.7489 120.692L78.0895 121.909L75.9169 122.517L73.5289 113.981L75.7014 113.373L76.0506 114.621C76.2159 114.143 76.5077 113.701 76.926 113.296C77.3369 112.904 77.8608 112.619 78.4977 112.441C79.2167 112.239 79.9259 112.24 80.6251 112.443C81.3141 112.649 81.9266 113.037 82.4626 113.607C82.9912 114.19 83.3777 114.918 83.6219 115.792ZM76.8954 117.641C77.042 118.165 77.2697 118.583 77.5786 118.895C77.8904 119.218 78.2482 119.428 78.652 119.525C79.0588 119.633 79.4624 119.631 79.863 119.518C80.2636 119.406 80.6061 119.205 80.8905 118.915C81.1749 118.625 81.3718 118.26 81.4811 117.82C81.5831 117.392 81.5623 116.922 81.4186 116.408C81.2749 115.895 81.0458 115.471 80.7311 115.138C80.4091 114.819 80.0498 114.604 79.6534 114.493C79.2467 114.385 78.8481 114.386 78.4578 114.495C78.0572 114.607 77.7096 114.81 77.4149 115.103C77.1231 115.406 76.9263 115.771 76.8243 116.199C76.7252 116.636 76.7489 117.117 76.8954 117.641Z" fill="#FB7941"/>
<path d="M75.147 118.061C75.2566 118.971 75.1668 119.788 74.8777 120.51C74.5898 121.243 74.1399 121.835 73.5279 122.284C72.9172 122.745 72.1882 123.026 71.341 123.128C70.2502 123.259 69.3169 123.092 68.5411 122.627C67.756 122.173 67.1824 121.469 66.8203 120.513L69.219 120.224C69.392 120.59 69.6447 120.861 69.9773 121.036C70.3006 121.222 70.6846 121.289 71.1294 121.235C71.7648 121.159 72.2399 120.865 72.5545 120.355C72.8703 119.855 72.9773 119.181 72.8754 118.334C72.7748 117.497 72.5111 116.868 72.0844 116.447C71.6589 116.036 71.1285 115.869 70.4931 115.946C69.5929 116.054 69.0536 116.527 68.875 117.365L66.4763 117.654C66.6053 116.671 66.996 115.856 67.6486 115.208C68.3013 114.56 69.1677 114.171 70.2479 114.041C71.0951 113.939 71.8693 114.034 72.5705 114.326C73.2729 114.628 73.8503 115.096 74.3025 115.729C74.7559 116.373 75.0374 117.15 75.147 118.061Z" fill="#FB7941"/>
<path d="M61.7665 114.412L64.7129 118.236L64.7741 114.461L67.0139 114.497L66.8219 126.336L64.5822 126.299L64.6914 119.564L61.6549 123.275L58.7432 123.228L62.7188 118.844L58.8549 114.365L61.7665 114.412Z" fill="#FB7941"/>
<path d="M53.956 120.415L54.7067 116.193C54.7589 115.899 54.729 115.671 54.6167 115.51C54.4921 115.358 54.2617 115.252 53.9257 115.193L52.9018 115.01L53.2323 113.152L54.6185 113.398C56.4773 113.729 57.2462 114.797 56.925 116.604L56.1771 120.81L57.2168 120.995L56.8947 122.806L55.855 122.621L55.4713 124.779L53.2502 124.384L53.6339 122.226L51.6806 121.879L52.0027 120.067L53.956 120.415Z" fill="#FB7941"/>
<path d="M50.1096 112.032C50.9261 112.28 51.6068 112.682 52.1517 113.237C52.6935 113.803 53.0526 114.475 53.229 115.253C53.3952 116.028 53.3467 116.849 53.0835 117.717C52.8203 118.584 52.3993 119.293 51.8203 119.842C51.2312 120.387 50.5507 120.738 49.7789 120.894C49.004 121.06 48.2082 121.019 47.3917 120.772C46.5751 120.524 45.8908 120.115 45.3388 119.547C44.7838 118.988 44.418 118.32 44.2416 117.542C44.055 116.76 44.0933 115.936 44.3565 115.068C44.6197 114.201 45.0509 113.496 45.6503 112.953C46.2394 112.407 46.9265 112.053 47.7117 111.89C48.4835 111.734 49.2828 111.781 50.1096 112.032ZM49.5429 113.9C49.1551 113.782 48.7649 113.764 48.3723 113.846C47.9664 113.935 47.6041 114.137 47.2854 114.452C46.9667 114.768 46.7253 115.196 46.5612 115.737C46.3166 116.544 46.3436 117.226 46.6423 117.785C46.9276 118.351 47.3765 118.727 47.9889 118.913C48.6013 119.099 49.1834 119.036 49.735 118.724C50.2733 118.419 50.6648 117.863 50.9094 117.057C51.154 116.251 51.1439 115.568 50.8789 115.008C50.6007 114.455 50.1554 114.086 49.5429 113.9Z" fill="#FB7941"/>
<path d="M38.5746 114.944L40.5073 111.116C40.6419 110.85 40.6785 110.623 40.6173 110.437C40.5417 110.255 40.3515 110.087 40.0469 109.934L39.1186 109.465L39.9695 107.779L41.2263 108.414C42.9115 109.265 43.3407 110.51 42.5137 112.148L40.5883 115.961L41.5309 116.437L40.7016 118.08L39.759 117.604L38.771 119.56L36.7573 118.543L37.7453 116.586L35.9744 115.692L36.8037 114.049L38.5746 114.944Z" fill="#FB7941"/>
<path d="M37.2872 105.803C37.9982 106.275 38.5349 106.856 38.8973 107.544C39.2538 108.242 39.4048 108.988 39.3503 109.784C39.2869 110.574 39.0046 111.347 38.5034 112.103C38.0021 112.858 37.3954 113.416 36.6833 113.775C35.9623 114.129 35.2097 114.27 34.4257 114.197C33.6357 114.134 32.8852 113.866 32.1742 113.394C31.4633 112.922 30.9251 112.335 30.5597 111.631C30.1884 110.937 30.03 110.191 30.0845 109.396C30.1301 108.594 30.4035 107.815 30.9048 107.059C31.406 106.304 32.0216 105.752 32.7515 105.405C33.4725 105.051 34.2325 104.909 35.0313 104.978C35.8154 105.051 36.5674 105.326 37.2872 105.803ZM36.2081 107.43C35.8704 107.206 35.5018 107.076 35.1024 107.042C34.6881 107.01 34.2831 107.1 33.8871 107.311C33.4912 107.521 33.137 107.862 32.8244 108.334C32.3586 109.036 32.1884 109.697 32.314 110.318C32.4248 110.942 32.7468 111.431 33.2801 111.785C33.8133 112.139 34.3889 112.246 35.0068 112.106C35.61 111.968 36.1445 111.549 36.6104 110.846C37.0763 110.144 37.2627 109.487 37.1696 108.875C37.0618 108.265 36.7413 107.784 36.2081 107.43Z" fill="#FB7941"/>
<path d="M27.4691 107.983C26.9829 108.087 26.465 108.068 25.9154 107.925C25.3507 107.783 24.8287 107.492 24.3494 107.052C23.7915 106.54 23.4148 105.941 23.2193 105.255C23.0159 104.561 23.019 103.84 23.2284 103.091C23.4228 102.343 23.8265 101.635 24.4395 100.967C25.0525 100.299 25.7305 99.8279 26.4737 99.5544C27.2017 99.2816 27.9235 99.2129 28.6389 99.3484C29.3464 99.4766 29.9791 99.7968 30.537 100.309C31.0163 100.749 31.3505 101.237 31.5395 101.772C31.7207 102.3 31.7882 102.819 31.7421 103.326L35.4525 99.2827L37.1026 100.798L28.2539 110.441L26.6037 108.926L27.4691 107.983ZM26.125 102.514C25.7644 102.907 25.5368 103.321 25.4422 103.755C25.3325 104.19 25.3428 104.605 25.4729 104.999C25.5952 105.387 25.8096 105.721 26.116 106.003C26.4146 106.277 26.7696 106.458 27.1811 106.546C27.5774 106.634 27.9915 106.609 28.4233 106.47C28.8473 106.323 29.2396 106.054 29.6002 105.661C29.9608 105.268 30.1959 104.854 30.3056 104.419C30.4074 103.976 30.4008 103.558 30.2857 103.162C30.1555 102.768 29.9412 102.433 29.6426 102.159C29.3361 101.878 28.9811 101.697 28.5776 101.616C28.1662 101.528 27.7485 101.557 27.3245 101.704C26.8926 101.843 26.4928 102.113 26.125 102.514Z" fill="#FB7941"/>
<path d="M17.1978 94.6545L18.7297 93.5509L22.6939 99.0562L21.162 100.16L17.1978 94.6545Z" fill="#FB7941"/>
<path d="M13.4528 84.9876C13.3 84.3659 13.3732 83.7648 13.6723 83.1842C13.9714 82.6037 14.4222 82.177 15.0246 81.904C15.5687 81.6575 16.1112 81.5756 16.6522 81.6583C17.1791 81.7358 17.6735 81.9743 18.1356 82.3739C18.5976 82.7735 18.9849 83.3182 19.2973 84.0081L21.2844 88.3951L11.1119 93.0044L9.21072 88.8069C8.89825 88.117 8.74153 87.4737 8.74054 86.8769C8.73515 86.2704 8.87442 85.7506 9.15834 85.3175C9.43786 84.8746 9.83023 84.5387 10.3355 84.3098C10.9281 84.0413 11.4962 83.9771 12.0398 84.1172C12.579 84.2476 13.05 84.5378 13.4528 84.9876ZM14.385 89.0621L13.54 87.1966C13.3199 86.7107 13.0436 86.3851 12.711 86.2196C12.3687 86.0585 11.9936 86.0704 11.5855 86.2553C11.1774 86.4402 10.9211 86.7145 10.8165 87.0781C10.7118 87.4417 10.7695 87.8664 10.9896 88.3522L11.8346 90.2178L14.385 89.0621ZM17.768 85.0524C17.5435 84.5569 17.2531 84.2259 16.8967 84.0595C16.5359 83.8834 16.1417 83.8922 15.7142 84.0859C15.277 84.284 15.003 84.5838 14.8921 84.9854C14.7715 85.3913 14.8235 85.8421 15.0479 86.3376L15.9589 88.3489L18.6988 87.1074L17.768 85.0524Z" fill="#FB7941"/>
<path d="M14.1053 83.3646C13.2413 83.6017 12.4284 83.6423 11.6667 83.4863C10.9021 83.3201 10.2594 82.9932 9.73854 82.5056C9.21485 82.0078 8.85283 81.3937 8.65248 80.6634C8.47752 80.0256 8.45372 79.4348 8.58108 78.8911C8.70561 78.337 8.92381 77.8624 9.23568 77.4671L8.01675 77.8016L7.41993 75.626L15.9679 73.2801L16.5647 75.4558L15.3149 75.7987C15.7923 75.9664 16.2324 76.2604 16.6353 76.6808C17.0251 77.0937 17.3074 77.619 17.4824 78.2568C17.6799 78.9768 17.6754 79.686 17.4687 80.3842C17.2593 81.0722 16.8682 81.6828 16.2955 82.216C15.7097 82.7418 14.9797 83.1247 14.1053 83.3646ZM12.2907 76.6287C11.7661 76.7726 11.3469 76.9983 11.033 77.3057C10.7089 77.6158 10.497 77.9726 10.3975 78.376C10.2877 78.7822 10.2879 79.1859 10.3979 79.5871C10.508 79.9883 10.7073 80.3318 10.9958 80.6176C11.2844 80.9034 11.6486 81.1021 12.0885 81.2137C12.5152 81.3178 12.9857 81.2993 13.5001 81.1581C14.0144 81.017 14.4388 80.7899 14.7732 80.4769C15.0945 80.1564 15.3115 79.7982 15.4241 79.4023C15.5339 78.9961 15.5352 78.5976 15.428 78.2067C15.3179 77.8055 15.1172 77.4569 14.8258 77.1607C14.5241 76.8675 14.1599 76.6688 13.7332 76.5647C13.2961 76.4634 12.8153 76.4847 12.2907 76.6287Z" fill="#FB7941"/>
<path d="M11.8785 74.8699C10.9672 74.9748 10.1511 74.8809 9.43021 74.5881C8.69874 74.2966 8.10974 73.8436 7.66323 73.2293C7.20612 72.6163 6.92877 71.8859 6.83119 71.0381C6.70554 69.9467 6.87737 69.0142 7.34667 68.2408C7.80415 67.458 8.5116 66.888 9.46903 66.5308L9.74532 68.9309C9.37848 69.102 9.10678 69.3534 8.93023 69.6851C8.74185 70.0075 8.67328 70.3912 8.72452 70.8362C8.79771 71.472 9.08877 71.9485 9.59772 72.2657C10.0961 72.5841 10.7691 72.6945 11.6168 72.5969C12.454 72.5005 13.0843 72.24 13.5079 71.8154C13.9208 71.392 14.0907 70.8625 14.0175 70.2267C13.9138 69.3259 13.4435 68.7842 12.6064 68.6014L12.3301 66.2013C13.3119 66.3352 14.125 66.7301 14.7696 67.386C15.4142 68.0419 15.7987 68.9103 15.9231 69.9911C16.0207 70.8388 15.9219 71.6126 15.6266 72.3123C15.3207 73.0132 14.8501 73.5882 14.2146 74.0371C13.5685 74.4873 12.7898 74.7649 11.8785 74.8699Z" fill="#FB7941"/>
<path d="M15.5937 61.5211L11.7589 64.4537L15.5341 64.5285L15.4898 66.768L3.65209 66.5335L3.69645 64.2939L10.4311 64.4274L6.7308 61.3774L6.78847 58.466L11.1583 62.4574L15.6514 58.6096L15.5937 61.5211Z" fill="#FB7941"/>
<path d="M9.62945 53.6896L13.8476 54.4603C14.1414 54.514 14.369 54.485 14.5303 54.3736C14.6831 54.2497 14.7901 54.0198 14.8514 53.684L15.0383 52.661L16.8955 53.0003L16.6426 54.3854C16.3034 56.2427 15.2314 57.0064 13.4266 56.6767L9.22413 55.9089L9.03441 56.9477L7.22438 56.617L7.4141 55.5782L5.25779 55.1842L5.6631 52.9649L7.81941 53.3589L8.17585 51.4072L9.98589 51.7379L9.62945 53.6896Z" fill="#FB7941"/>
<path d="M18.0277 49.8858C17.7762 50.7012 17.3715 51.3801 16.8136 51.9223C16.2455 52.4615 15.572 52.8174 14.7931 52.9901C14.0175 53.1526 13.1964 53.1002 12.3301 52.8329C11.4637 52.5656 10.7574 52.1412 10.2112 51.5596C9.66816 50.9679 9.32044 50.2857 9.16804 49.5131C9.00545 48.7374 9.0499 47.9418 9.30139 47.1263C9.55288 46.3109 9.96427 45.6285 10.5355 45.0792C11.0966 44.5267 11.7666 44.1641 12.5454 43.9914C13.3274 43.8085 14.1515 43.8507 15.0179 44.118C15.8843 44.3853 16.5874 44.8199 17.1273 45.4219C17.6704 46.0136 18.0216 46.7025 18.1811 47.4884C18.3335 48.261 18.2824 49.0601 18.0277 49.8858ZM16.1625 49.3103C16.2819 48.9229 16.3018 48.5328 16.2221 48.1398C16.1353 47.7335 15.9348 47.3702 15.6206 47.05C15.3063 46.7298 14.8791 46.4864 14.3389 46.3197C13.5337 46.0712 12.851 46.095 12.2909 46.391C11.7237 46.6737 11.3458 47.1208 11.1572 47.7324C10.9686 48.344 11.029 48.9264 11.3383 49.4795C11.6407 50.0193 12.1945 50.4134 12.9997 50.6619C13.8049 50.9103 14.4879 50.9034 15.0488 50.6411C15.6026 50.3654 15.9739 49.9218 16.1625 49.3103Z" fill="#FB7941"/>
<path d="M15.1748 38.3209L18.9926 40.2732C19.2586 40.4091 19.4848 40.447 19.6714 40.3866C19.8533 40.3119 20.0219 40.1226 20.1773 39.8187L20.6506 38.8926L22.3316 39.7522L21.6908 41.0059C20.8315 42.687 19.5851 43.11 17.9516 42.2747L14.148 40.3297L13.6674 41.27L12.0292 40.4323L12.5098 39.492L10.5582 38.4941L11.5849 36.4853L13.5366 37.4832L14.4396 35.7166L16.0778 36.5543L15.1748 38.3209Z" fill="#FB7941"/>
<path d="M24.3099 37.0934C23.8349 37.8024 23.2523 38.3365 22.5622 38.6957C21.8633 39.0491 21.116 39.1967 20.3204 39.1385C19.5307 39.0715 18.7593 38.7856 18.0062 38.2808C17.253 37.776 16.6983 37.1667 16.3421 36.4528C15.9918 35.73 15.8545 34.9767 15.9303 34.1928C15.9973 33.403 16.2682 32.6537 16.7432 31.9447C17.2182 31.2358 17.8081 30.7003 18.513 30.338C19.209 29.9699 19.9548 29.8149 20.7504 29.873C21.552 29.9223 22.3293 30.1994 23.0825 30.7042C23.8356 31.209 24.3844 31.8272 24.7288 32.5588C25.0791 33.2816 25.2178 34.0423 25.1449 34.841C25.0691 35.6248 24.7908 36.3756 24.3099 37.0934ZM22.6884 36.0066C22.914 35.6699 23.045 35.3018 23.0815 34.9025C23.115 34.4884 23.0272 34.0828 22.8181 33.6859C22.609 33.2889 22.2696 32.933 21.8 32.6183C21.1001 32.1491 20.4393 31.9759 19.8178 32.0987C19.1934 32.2066 18.7031 32.5264 18.3468 33.0581C17.9906 33.5898 17.8813 34.165 18.0189 34.7837C18.1535 35.3876 18.5708 35.9241 19.2708 36.3933C19.9708 36.8625 20.627 37.0519 21.2396 36.9617C21.8492 36.8567 22.3322 36.5383 22.6884 36.0066Z" fill="#FB7941"/>
<path d="M22.1862 27.2491C22.0847 26.7623 22.1065 26.2444 22.2516 25.6953C22.3962 25.1312 22.6896 24.6106 23.1319 24.1333C23.6466 23.5777 24.2475 23.2039 24.9345 23.0117C25.6288 22.8117 26.3498 22.8183 27.0975 23.0314C27.8447 23.2294 28.5507 23.6367 29.2157 24.253C29.8806 24.8694 30.348 25.5499 30.6178 26.2945C30.887 27.024 30.9522 27.7462 30.8134 28.4611C30.6818 29.1681 30.3586 29.7994 29.8439 30.3549C29.4016 30.8322 28.9124 31.164 28.376 31.3505C27.847 31.5291 27.3287 31.5941 26.8212 31.5455L30.846 35.2763L29.3236 36.9194L19.725 28.022L21.2474 26.3789L22.1862 27.2491ZM27.6606 25.9313C27.2695 25.5688 26.857 25.3391 26.4231 25.2424C25.9887 25.1306 25.5739 25.1388 25.1788 25.267C24.7909 25.3874 24.4556 25.6002 24.1728 25.9054C23.8973 26.2027 23.7146 26.5569 23.6245 26.9679C23.5339 27.3639 23.5572 27.7782 23.6944 28.2108C23.8389 28.6356 24.1067 29.0293 24.4978 29.3918C24.889 29.7544 25.3017 29.9916 25.7362 30.1034C26.1779 30.2074 26.5966 30.2028 26.9923 30.0896C27.3874 29.9614 27.7227 29.7486 27.9982 29.4513C28.2809 29.1461 28.4637 28.7919 28.5465 28.3887C28.6365 27.9777 28.6093 27.5597 28.4648 27.135C28.3277 26.7023 28.0596 26.3011 27.6606 25.9313Z" fill="#FB7941"/>
<path d="M35.5442 17.0495L36.6405 18.5866L31.1181 22.5269L30.0218 20.9898L35.5442 17.0495Z" fill="#FB7941"/>
</g>
<defs>
<clipPath id="clip0_365_270">
<rect width="130" height="130" fill="white"/>
</clipPath>
</defs>
</svg>
